<svg width="1616" height="1189" xmlns="http://www.w3.org/2000/svg" xmlns:xlink="http://www.w3.org/1999/xlink" xml:space="preserve" overflow="hidden"><g transform="translate(-1254 -804)"><rect x="1881.5" y="965.5" width="401" height="273" stroke="#000000" stroke-width="6.875" stroke-miterlimit="8" fill="#84E291"/><path d="M2079.34 1077.67 2060.22 1111.51 2081.22 1111.51 2080.31 1094.22C2080.2 1091.85 2080.11 1088.9 2080.04 1085.35 2079.97 1081.81 2079.93 1079.25 2079.93 1077.67ZM1947.02 1071.93C1944.8 1071.93 1942.48 1071.98 1940.04 1072.09L1932.74 1104.64 1938.32 1104.64C1942.65 1104.64 1946.15 1104.19 1948.82 1103.29 1951.49 1102.4 1953.67 1101.01 1955.38 1099.13 1957.08 1097.25 1958.39 1095.02 1959.32 1092.44 1960.25 1089.87 1960.72 1087.04 1960.72 1083.96 1960.72 1079.8 1959.66 1076.76 1957.55 1074.83 1955.44 1072.89 1951.93 1071.93 1947.02 1071.93ZM2192.17 1067.2 2248.25 1067.2 2244.06 1086.11 2238.9 1086.11C2238.9 1082.63 2238.81 1080.03 2238.63 1078.29 2238.45 1076.55 2238.11 1075.23 2237.61 1074.32 2237.11 1073.4 2236.49 1072.78 2235.76 1072.44 2235.02 1072.1 2233.73 1071.93 2231.86 1071.93L2223.92 1071.93 2212.26 1124.89C2211.94 1126.28 2211.71 1127.39 2211.59 1128.22 2211.46 1129.04 2211.36 1129.91 2211.27 1130.82 2211.18 1131.73 2211.13 1132.55 2211.13 1133.26 2211.13 1134.37 2211.31 1135.24 2211.67 1135.87 2212.03 1136.5 2212.56 1136.95 2213.28 1137.24 2214 1137.53 2215.23 1137.74 2216.99 1137.88L2216.4 1140.52 2193.78 1140.52 2194.37 1137.88C2195.81 1137.67 2196.86 1137.38 2197.54 1137.02 2198.22 1136.67 2198.82 1136.11 2199.34 1135.36 2199.86 1134.61 2200.38 1133.43 2200.9 1131.81 2201.42 1130.2 2202.04 1127.77 2202.75 1124.51L2214.25 1071.93 2207.43 1071.93C2205.21 1071.93 2203.43 1072.25 2202.11 1072.89 2200.78 1073.54 2199.46 1074.74 2198.13 1076.49 2196.81 1078.25 2195.2 1081.18 2193.3 1085.3L2188.14 1085.3ZM2121.41 1067.2 2138.54 1067.2 2152.72 1109.04C2154.77 1115.06 2156.34 1120.14 2157.45 1124.3L2158.04 1124.3C2158.33 1122.11 2158.98 1118.48 2160 1113.39 2161.02 1108.31 2161.96 1103.87 2162.82 1100.07L2166.58 1083.15C2167.37 1079.61 2167.76 1076.73 2167.76 1074.51 2167.76 1072.82 2167.34 1071.65 2166.5 1070.99 2165.66 1070.32 2164.33 1069.94 2162.5 1069.83L2163.09 1067.2 2181.89 1067.2 2181.3 1069.83C2179.94 1070.12 2178.96 1070.44 2178.37 1070.8 2177.78 1071.16 2177.25 1071.69 2176.79 1072.41 2176.32 1073.13 2175.84 1074.25 2175.34 1075.77 2174.84 1077.29 2174.21 1079.77 2173.46 1083.21L2160.83 1140.52 2153.53 1140.52 2137.85 1094.43C2135.95 1088.92 2134.28 1083.42 2132.85 1077.94L2132.15 1077.94C2131.94 1079.77 2131.35 1083.25 2130.38 1088.39 2129.41 1093.53 2128.39 1098.55 2127.32 1103.46L2122.59 1124.89C2121.84 1128.29 2121.46 1131.08 2121.46 1133.26 2121.46 1134.88 2121.87 1136.01 2122.67 1136.68 2123.48 1137.34 2124.83 1137.74 2126.73 1137.88L2126.14 1140.52 2107.34 1140.52 2107.93 1137.88C2109.29 1137.67 2110.31 1137.32 2110.99 1136.84 2111.67 1136.35 2112.24 1135.68 2112.71 1134.82 2113.18 1133.96 2113.6 1132.92 2114 1131.68 2114.39 1130.44 2114.98 1128.05 2115.77 1124.51L2124.9 1083.15C2125.26 1081.61 2125.55 1080.14 2125.76 1078.75 2125.98 1077.35 2126.08 1075.94 2126.08 1074.51 2126.08 1072.82 2125.66 1071.65 2124.82 1070.99 2123.98 1070.32 2122.65 1069.94 2120.82 1069.83ZM1992.52 1067.2 2014 1067.2 2013.41 1069.83C2012.05 1070.12 2011.08 1070.44 2010.48 1070.8 2009.89 1071.16 2009.37 1071.69 2008.9 1072.41 2008.43 1073.13 2007.95 1074.25 2007.45 1075.77 2006.95 1077.29 2006.32 1079.77 2005.57 1083.21L1994.08 1135.57 2007.29 1135.57C2009.69 1135.57 2011.58 1135.34 2012.96 1134.88 2014.33 1134.41 2015.64 1133.56 2016.88 1132.32 2018.11 1131.09 2019.32 1129.42 2020.5 1127.3 2021.68 1125.19 2022.88 1122.56 2024.1 1119.41L2029.31 1119.41 2023.89 1140.52 1978.45 1140.52 1979.04 1137.88C1980.4 1137.67 1981.42 1137.32 1982.1 1136.84 1982.78 1136.35 1983.35 1135.68 1983.82 1134.82 1984.28 1133.96 1984.71 1132.92 1985.11 1131.68 1985.5 1130.44 1986.09 1128.05 1986.88 1124.51L1996.01 1083.15C1996.8 1079.57 1997.19 1076.69 1997.19 1074.51 1997.19 1072.82 1996.77 1071.65 1995.93 1070.99 1995.09 1070.32 1993.75 1069.94 1991.93 1069.83ZM1924.52 1067.2 1948.2 1067.2C1952.47 1067.2 1955.97 1067.53 1958.71 1068.19 1961.44 1068.86 1963.7 1069.88 1965.47 1071.26 1967.25 1072.63 1968.57 1074.38 1969.45 1076.49 1970.32 1078.6 1970.76 1081.06 1970.76 1083.85 1970.76 1089.22 1969.49 1093.88 1966.95 1097.82 1964.41 1101.75 1960.96 1104.65 1956.61 1106.52 1952.26 1108.38 1947.04 1109.31 1940.95 1109.31 1937.3 1109.31 1934.26 1109.24 1931.82 1109.09L1928.39 1124.89C1928.06 1126.35 1927.84 1127.48 1927.71 1128.27 1927.59 1129.06 1927.48 1129.91 1927.39 1130.82 1927.3 1131.73 1927.26 1132.55 1927.26 1133.26 1927.26 1134.37 1927.44 1135.24 1927.79 1135.87 1928.15 1136.5 1928.69 1136.95 1929.41 1137.24 1930.12 1137.53 1931.36 1137.74 1933.11 1137.88L1932.52 1140.52 1910.45 1140.52 1911.04 1137.88C1912.4 1137.67 1913.42 1137.32 1914.1 1136.84 1914.78 1136.35 1915.35 1135.68 1915.82 1134.82 1916.28 1133.96 1916.71 1132.92 1917.11 1131.68 1917.5 1130.44 1918.09 1128.05 1918.88 1124.51L1928.01 1083.15C1928.8 1079.57 1929.19 1076.74 1929.19 1074.67 1929.19 1072.91 1928.78 1071.69 1927.96 1071.01 1927.13 1070.33 1925.79 1069.94 1923.93 1069.83ZM2079.66 1066.34 2087.77 1066.34 2091.64 1126.23C2091.82 1129.06 2092.14 1131.27 2092.61 1132.86 2093.07 1134.46 2093.71 1135.64 2094.51 1136.41 2095.32 1137.18 2096.49 1137.67 2098.03 1137.88L2097.44 1140.52 2075.1 1140.52 2075.69 1137.88C2077.8 1137.7 2079.38 1136.88 2080.41 1135.41 2081.45 1133.95 2081.97 1131.37 2081.97 1127.68 2081.97 1126.28 2081.92 1124.76 2081.81 1123.11L2081.44 1116.18 2057.8 1116.18 2054.85 1121.45C2053.45 1123.92 2052.43 1126.04 2051.79 1127.81 2051.14 1129.59 2050.82 1131.15 2050.82 1132.51 2050.82 1135.52 2052.63 1137.31 2056.24 1137.88L2055.65 1140.52 2033.69 1140.52 2034.28 1137.88C2035.39 1137.74 2036.43 1137.3 2037.42 1136.57 2038.4 1135.83 2039.45 1134.72 2040.56 1133.24 2041.67 1131.75 2043.23 1129.29 2045.23 1125.85Z" fill-rule="evenodd"/><text fill="#000000" fill-opacity="0" font-family="Arial,Arial_MSFontService,sans-serif" font-size="74.1748" x="1910.45" y="1131.24">π‘ƒπΏπ΄π‘π‘‡</text><path d="M1572.5 1098.06 1859.23 1098.06 1859.23 1104.94 1572.5 1104.94ZM1854.65 1087.75 1882.15 1101.5 1854.65 1115.25Z"/><path d="M1382.5 1102C1382.5 1049.81 1425.03 1007.5 1477.5 1007.5 1529.97 1007.5 1572.5 1049.81 1572.5 1102 1572.5 1154.19 1529.97 1196.5 1477.5 1196.5 1425.03 1196.5 1382.5 1154.19 1382.5 1102Z" stroke="#000000" stroke-width="6.875" stroke-miterlimit="8" fill="#FFFFFF" fill-rule="evenodd"/><rect x="1877.5" y="1399.5" width="401" height="272" stroke="#000000" stroke-width="6.875" stroke-miterlimit="8" fill="#83CBEB"/><path d="M1983.88 1498.23C1981.66 1498.23 1979.33 1498.28 1976.89 1498.39L1969.59 1530.94 1975.18 1530.94C1979.51 1530.94 1983.01 1530.49 1985.68 1529.59 1988.34 1528.7 1990.53 1527.31 1992.23 1525.43 1993.93 1523.55 1995.25 1521.32 1996.18 1518.75 1997.11 1516.17 1997.57 1513.34 1997.57 1510.26 1997.57 1506.11 1996.52 1503.06 1994.4 1501.13 1992.29 1499.19 1988.78 1498.23 1983.88 1498.23ZM2091.89 1498.17C2090.31 1498.17 2088.61 1498.23 2086.79 1498.34L2072.88 1561.88C2073.91 1561.98 2075.9 1562.04 2078.84 1562.04 2084.64 1562.04 2089.56 1561.02 2093.61 1559 2097.65 1556.98 2101.15 1553.81 2104.08 1549.49 2107.02 1545.18 2109.18 1540.63 2110.58 1535.85 2111.98 1531.07 2112.68 1526.03 2112.68 1520.73 2112.68 1513.25 2110.93 1507.62 2107.44 1503.84 2103.95 1500.06 2098.76 1498.17 2091.89 1498.17ZM2071.37 1493.5 2091.73 1493.5C2097.13 1493.5 2101.52 1493.91 2104.89 1494.74 2108.25 1495.56 2111.4 1497.05 2114.31 1499.19 2117.23 1501.34 2119.42 1504.2 2120.89 1507.76 2122.36 1511.32 2123.09 1515.54 2123.09 1520.41 2123.09 1525.24 2122.54 1529.86 2121.43 1534.27 2120.32 1538.67 2118.73 1542.73 2116.65 1546.43 2114.57 1550.14 2112.08 1553.36 2109.18 1556.1 2106.28 1558.84 2103.47 1560.94 2100.75 1562.41 2098.03 1563.88 2094.99 1564.98 2091.62 1565.72 2088.25 1566.45 2084.33 1566.82 2079.86 1566.82L2057.3 1566.82 2057.89 1564.18C2059.25 1563.97 2060.27 1563.62 2060.95 1563.14 2061.63 1562.65 2062.2 1561.98 2062.67 1561.12 2063.14 1560.26 2063.57 1559.22 2063.96 1557.98 2064.35 1556.75 2064.94 1554.36 2065.73 1550.81L2074.86 1509.45C2075.65 1505.87 2076.04 1502.99 2076.04 1500.81 2076.04 1499.12 2075.62 1497.95 2074.78 1497.29 2073.94 1496.63 2072.61 1496.24 2070.78 1496.13ZM2029.37 1493.5 2050.86 1493.5 2050.26 1496.13C2048.9 1496.42 2047.93 1496.74 2047.34 1497.1 2046.75 1497.46 2046.22 1497.99 2045.75 1498.71 2045.29 1499.43 2044.8 1500.55 2044.3 1502.07 2043.8 1503.59 2043.18 1506.07 2042.42 1509.51L2033.24 1551.19C2032.77 1553.3 2032.47 1554.97 2032.33 1556.21 2032.18 1557.44 2032.11 1558.56 2032.11 1559.57 2032.11 1561.18 2032.51 1562.31 2033.32 1562.98 2034.12 1563.64 2035.48 1564.04 2037.37 1564.18L2036.78 1566.82 2015.3 1566.82 2015.89 1564.18C2017.25 1563.97 2018.27 1563.62 2018.95 1563.14 2019.63 1562.65 2020.2 1561.98 2020.67 1561.12 2021.14 1560.26 2021.57 1559.22 2021.96 1557.98 2022.35 1556.75 2022.94 1554.36 2023.73 1550.81L2032.86 1509.45C2033.65 1505.87 2034.04 1502.99 2034.04 1500.81 2034.04 1499.12 2033.62 1497.95 2032.78 1497.29 2031.94 1496.63 2030.61 1496.24 2028.78 1496.13ZM1961.37 1493.5 1985.06 1493.5C1989.32 1493.5 1992.82 1493.83 1995.56 1494.49 1998.3 1495.16 2000.55 1496.18 2002.33 1497.56 2004.1 1498.93 2005.42 1500.68 2006.3 1502.79 2007.18 1504.91 2007.62 1507.36 2007.62 1510.15 2007.62 1515.52 2006.35 1520.18 2003.8 1524.12 2001.26 1528.06 1997.81 1530.96 1993.46 1532.82 1989.11 1534.68 1983.89 1535.61 1977.81 1535.61 1974.15 1535.61 1971.11 1535.54 1968.68 1535.4L1965.24 1551.19C1964.92 1552.65 1964.69 1553.78 1964.57 1554.57 1964.44 1555.36 1964.33 1556.21 1964.24 1557.12 1964.16 1558.03 1964.11 1558.85 1964.11 1559.57 1964.11 1560.68 1964.29 1561.54 1964.65 1562.17 1965.01 1562.8 1965.54 1563.25 1966.26 1563.54 1966.98 1563.83 1968.21 1564.04 1969.97 1564.18L1969.37 1566.82 1947.3 1566.82 1947.89 1564.18C1949.25 1563.97 1950.27 1563.62 1950.95 1563.14 1951.63 1562.65 1952.2 1561.98 1952.67 1561.12 1953.14 1560.26 1953.57 1559.22 1953.96 1557.98 1954.35 1556.75 1954.94 1554.36 1955.73 1550.81L1964.86 1509.45C1965.65 1505.87 1966.04 1503.04 1966.04 1500.97 1966.04 1499.21 1965.63 1497.99 1964.81 1497.31 1963.99 1496.63 1962.64 1496.24 1960.78 1496.13Z" fill-rule="evenodd"/><text fill="#000000" fill-opacity="0" font-family="Arial,Arial_MSFontService,sans-serif" font-size="73.3154" x="1947.3" y="1557.65">π‘ƒπΌπ·</text><path d="M2192.43 1492.64 2195.38 1492.64C2195.17 1496.08 2195.06 1500.84 2195.06 1506.93L2195.06 1552.8C2195.06 1554.87 2195.17 1556.44 2195.41 1557.5 2195.64 1558.55 2196.05 1559.41 2196.64 1560.08 2197.23 1560.74 2198.08 1561.26 2199.19 1561.63 2200.3 1562.01 2201.7 1562.3 2203.38 1562.49 2205.07 1562.69 2207.29 1562.82 2210.04 1562.9L2210.04 1566.82 2170.35 1566.82 2170.35 1562.9C2174.33 1562.72 2177.16 1562.47 2178.86 1562.17 2180.57 1561.87 2181.86 1561.41 2182.76 1560.8 2183.65 1560.19 2184.31 1559.33 2184.72 1558.22 2185.13 1557.11 2185.34 1555.3 2185.34 1552.8L2185.34 1509.24C2185.34 1507.81 2185.09 1506.76 2184.58 1506.1 2184.08 1505.43 2183.35 1505.1 2182.38 1505.1 2181.24 1505.1 2179.61 1505.69 2177.49 1506.88 2175.38 1508.06 2172.77 1509.69 2169.65 1511.76L2167.29 1507.63Z" fill-rule="evenodd"/><text fill="#000000" fill-opacity="0" font-family="Arial,Arial_MSFontService,sans-serif" font-size="74.1748" x="2167.29" y="1557.54">1</text><path d="M2377.76 1751.91C2378.68 1751.91 2379.5 1752.01 2380.2 1752.22 2380.91 1752.43 2381.53 1752.75 2382.07 1753.19 2382.61 1753.62 2383.09 1754.18 2383.51 1754.87 2383.92 1755.56 2384.33 1756.5 2384.72 1757.68 2385.11 1758.86 2385.47 1760.33 2385.82 1762.08 2386.16 1763.83 2386.47 1765.65 2386.74 1767.54L2387.19 1767.54C2390.06 1763.5 2392.24 1760.54 2393.73 1758.67 2395.21 1756.8 2396.46 1755.4 2397.48 1754.49 2398.49 1753.58 2399.48 1752.93 2400.42 1752.56 2401.36 1752.19 2402.61 1752 2404.17 1752 2405.58 1752 2406.73 1752.18 2407.63 1752.54L2405.83 1760.67 2402.69 1760.67C2402.51 1759.41 2401.98 1758.78 2401.11 1758.78 2400.85 1758.78 2400.56 1758.83 2400.26 1758.92 2399.96 1759.01 2399.6 1759.2 2399.16 1759.5 2398.73 1759.8 2398.09 1760.38 2397.25 1761.25 2396.41 1762.12 2395.47 1763.18 2394.42 1764.44 2393.37 1765.7 2392.3 1767.02 2391.19 1768.39L2388.13 1772.21C2388.67 1775.09 2389.18 1777.57 2389.66 1779.67 2390.14 1781.77 2390.57 1783.51 2390.94 1784.9 2391.31 1786.3 2391.64 1787.4 2391.93 1788.2 2392.21 1789.01 2392.52 1789.62 2392.85 1790.02 2393.18 1790.43 2393.52 1790.71 2393.86 1790.88 2394.2 1791.04 2394.6 1791.12 2395.05 1791.12 2395.86 1791.12 2396.65 1790.81 2397.41 1790.18 2398.17 1789.55 2399.27 1788.13 2400.71 1785.91L2403.63 1787.85C2401.53 1790.96 2399.64 1793.15 2397.95 1794.43 2396.26 1795.7 2394.24 1796.34 2391.91 1796.34 2390.62 1796.34 2389.53 1796.1 2388.63 1795.64 2387.73 1795.18 2386.95 1794.43 2386.29 1793.42 2385.63 1792.4 2385.05 1790.81 2384.54 1788.65 2383.61 1784.82 2383.04 1781.89 2382.83 1779.85L2382.38 1779.85C2379.21 1784.31 2376.85 1787.52 2375.31 1789.46 2373.77 1791.41 2372.49 1792.85 2371.49 1793.78 2370.49 1794.7 2369.51 1795.35 2368.57 1795.73 2367.63 1796.1 2366.38 1796.29 2364.82 1796.29 2363.41 1796.29 2362.26 1796.11 2361.36 1795.75L2363.16 1787.62 2366.3 1787.62C2366.48 1788.88 2367 1789.51 2367.87 1789.51 2368.29 1789.51 2368.73 1789.4 2369.2 1789.17 2369.66 1788.95 2370.33 1788.41 2371.2 1787.55 2372.07 1786.7 2373.26 1785.36 2374.79 1783.53 2376.32 1781.71 2378.53 1778.97 2381.44 1775.31 2380.99 1772.95 2380.53 1770.67 2380.05 1768.48 2379.57 1766.3 2379.07 1764.26 2378.56 1762.37 2378.06 1760.49 2377.64 1759.25 2377.31 1758.67 2376.98 1758.08 2376.62 1757.68 2376.25 1757.46 2375.88 1757.23 2375.4 1757.12 2374.84 1757.12 2374.21 1757.12 2373.64 1757.26 2373.13 1757.55 2372.62 1757.83 2372.07 1758.32 2371.47 1759.03 2370.87 1759.73 2370.07 1760.83 2369.09 1762.33L2366.17 1760.4C2368.05 1757.55 2369.86 1755.43 2371.6 1754.02 2373.34 1752.61 2375.39 1751.91 2377.76 1751.91Z" fill-rule="evenodd"/><text fill="#000000" fill-opacity="0" font-family="Arial,Arial_MSFontService,sans-serif" font-size="44.4277" x="2361.36" y="1790.78">π‘¥</text><path d="M2446.75 1730.7 2447.96 1734.16C2440.95 1736.47 2435.76 1740.97 2432.39 1747.66 2429.02 1754.36 2427.34 1762.76 2427.34 1772.89 2427.34 1783.37 2429.02 1792.01 2432.39 1798.81 2435.76 1805.6 2440.91 1810.16 2447.82 1812.46L2446.75 1815.92C2437.97 1813.62 2431.25 1808.65 2426.58 1801.03 2421.9 1793.41 2419.57 1784.18 2419.57 1773.34 2419.57 1762.52 2421.91 1753.29 2426.6 1745.64 2431.29 1737.99 2438 1733.01 2446.75 1730.7Z" fill-rule="evenodd"/><text fill="#000000" fill-opacity="0" font-family="Arial,Arial_MSFontService,sans-serif" font-size="85.2168" x="2419.57" y="1805.27">(</text><path d="M2466.86 1741.58 2473.06 1741.58 2470.59 1752.67 2484.24 1752.67 2483.26 1757.21 2469.6 1757.21 2465.6 1774.64C2464.82 1778.02 2464.33 1780.46 2464.12 1781.94 2463.91 1783.42 2463.8 1784.61 2463.8 1785.51 2463.8 1789.22 2465.35 1791.08 2468.43 1791.08 2469.75 1791.08 2471.15 1790.58 2472.63 1789.58 2474.11 1788.57 2475.87 1786.86 2477.91 1784.43L2480.52 1787.13C2477.91 1790.27 2475.4 1792.59 2472.99 1794.09 2470.58 1795.59 2468.06 1796.34 2465.42 1796.34 2459.16 1796.34 2456.03 1793.18 2456.03 1786.86 2456.03 1784.85 2456.29 1782.74 2456.8 1780.52L2462.1 1757.21 2454.55 1757.21 2455.22 1754.11C2456.99 1754.08 2458.33 1753.94 2459.24 1753.7 2460.16 1753.47 2460.92 1753.14 2461.54 1752.72 2462.15 1752.3 2462.71 1751.7 2463.22 1750.92 2463.73 1750.14 2464.22 1749.15 2464.7 1747.93 2465.18 1746.72 2465.9 1744.6 2466.86 1741.58Z" fill-rule="evenodd"/><text fill="#000000" fill-opacity="0" font-family="Arial,Arial_MSFontService,sans-serif" font-size="54.7598" x="2454.55" y="1789.49">π‘΅</text><path d="M2490.55 1730.7C2499.3 1733.01 2506.01 1737.99 2510.7 1745.64 2515.39 1753.29 2517.73 1762.52 2517.73 1773.34 2517.73 1784.18 2515.4 1793.41 2510.72 1801.03 2506.05 1808.65 2499.33 1813.62 2490.55 1815.92L2489.48 1812.46C2496.39 1810.16 2501.54 1805.6 2504.91 1798.81 2508.28 1792.01 2509.96 1783.37 2509.96 1772.89 2509.96 1762.76 2508.28 1754.36 2504.93 1747.66 2501.57 1740.97 2496.38 1736.47 2489.34 1734.16Z" fill-rule="evenodd"/><text fill="#000000" fill-opacity="0" font-family="Arial,Arial_MSFontService,sans-serif" font-size="85.2168" x="2489.34" y="1805.27">)</text><path d="M1649.37 1007.63C1651.29 1007.63 1652.8 1008.27 1653.91 1009.56 1655.02 1010.85 1655.57 1012.58 1655.57 1014.77 1655.57 1017.14 1655.1 1020.09 1654.18 1023.62L1652.2 1031.39C1651.69 1033.37 1651.32 1034.91 1651.1 1036.02 1650.87 1037.13 1650.71 1038.08 1650.61 1038.89 1650.5 1039.7 1650.45 1040.38 1650.45 1040.91 1650.45 1042.98 1650.79 1044.47 1651.48 1045.38 1652.17 1046.3 1653.29 1046.75 1654.85 1046.75 1656.11 1046.75 1657.46 1046.25 1658.92 1045.25 1660.37 1044.25 1661.91 1042.73 1663.54 1040.71 1665.17 1038.69 1666.49 1036.73 1667.47 1034.83 1668.46 1032.93 1669.27 1030.58 1669.9 1027.8L1674.17 1008.35 1681.94 1008.35 1675.38 1036.83C1674.72 1039.7 1674.39 1041.92 1674.39 1043.47 1674.39 1044.67 1674.59 1045.54 1674.98 1046.08 1675.36 1046.62 1675.98 1046.89 1676.82 1046.89 1677.72 1046.89 1678.67 1046.52 1679.69 1045.79 1680.71 1045.05 1682.15 1043.65 1684 1041.59L1686.57 1044.1C1683.84 1047.01 1681.52 1049.06 1679.6 1050.26 1677.69 1051.46 1675.65 1052.05 1673.49 1052.05 1671.64 1052.05 1670.15 1051.44 1669.05 1050.21 1667.94 1048.99 1667.38 1047.35 1667.38 1045.32 1667.38 1043.7 1667.74 1041.93 1668.46 1040.02L1667.92 1039.84C1664.96 1044 1662.15 1047.07 1659.5 1049.05 1656.85 1051.02 1654.13 1052.01 1651.35 1052.01 1648.56 1052.01 1646.42 1051.21 1644.92 1049.61 1643.43 1048 1642.68 1045.78 1642.68 1042.94 1642.68 1041.05 1643.11 1038.37 1643.98 1034.89L1646.9 1023.13C1647.71 1019.86 1648.11 1017.55 1648.11 1016.21 1648.11 1015.01 1647.92 1014.14 1647.53 1013.6 1647.14 1013.06 1646.52 1012.79 1645.69 1012.79 1644.76 1012.79 1643.78 1013.18 1642.74 1013.94 1641.71 1014.7 1640.3 1016.09 1638.5 1018.09L1635.94 1015.58C1638.48 1013 1640.4 1011.24 1641.69 1010.28 1642.98 1009.32 1644.21 1008.64 1645.39 1008.23 1646.58 1007.83 1647.9 1007.63 1649.37 1007.63Z" fill-rule="evenodd"/><text fill="#000000" fill-opacity="0" font-family="Arial,Arial_MSFontService,sans-serif" font-size="44.4277" x="1635.94" y="1046.5">π‘Ά</text><path d="M1725.17 986.424 1726.38 989.883C1719.37 992.189 1714.19 996.689 1710.82 1003.38 1707.45 1010.08 1705.76 1018.48 1705.76 1028.61 1705.76 1039.09 1707.45 1047.73 1710.82 1054.53 1714.19 1061.32 1719.33 1065.88 1726.25 1068.18L1725.17 1071.64C1716.39 1069.33 1709.67 1064.37 1705 1056.75 1700.33 1049.13 1697.99 1039.9 1697.99 1029.05 1697.99 1018.24 1700.34 1009.01 1705.02 1001.36 1709.71 993.709 1716.42 988.73 1725.17 986.424Z" fill-rule="evenodd"/><text fill="#000000" fill-opacity="0" font-family="Arial,Arial_MSFontService,sans-serif" font-size="85.2168" x="1697.99" y="1060.99">(</text><path d="M1745.28 997.295 1751.48 997.295 1749.01 1008.39 1762.67 1008.39 1761.68 1012.93 1748.02 1012.93 1744.03 1030.36C1743.25 1033.74 1742.75 1036.18 1742.54 1037.66 1742.33 1039.14 1742.23 1040.33 1742.23 1041.23 1742.23 1044.94 1743.77 1046.8 1746.86 1046.8 1748.17 1046.8 1749.57 1046.3 1751.06 1045.29 1752.54 1044.29 1754.3 1042.58 1756.33 1040.15L1758.94 1042.85C1756.33 1045.99 1753.83 1048.31 1751.41 1049.81 1749 1051.31 1746.48 1052.05 1743.85 1052.05 1737.59 1052.05 1734.46 1048.9 1734.46 1042.58 1734.46 1040.57 1734.71 1038.46 1735.22 1036.24L1740.52 1012.93 1732.97 1012.93 1733.65 1009.83C1735.42 1009.8 1736.76 1009.66 1737.67 1009.42 1738.58 1009.18 1739.35 1008.86 1739.96 1008.44 1740.57 1008.02 1741.14 1007.42 1741.64 1006.64 1742.15 1005.86 1742.65 1004.86 1743.13 1003.65 1743.61 1002.44 1744.32 1000.32 1745.28 997.295Z" fill-rule="evenodd"/><text fill="#000000" fill-opacity="0" font-family="Arial,Arial_MSFontService,sans-serif" font-size="54.7598" x="1732.97" y="1045.21">π‘΅</text><path d="M1768.98 986.424C1777.72 988.73 1784.44 993.709 1789.13 1001.36 1793.81 1009.01 1796.16 1018.24 1796.16 1029.05 1796.16 1039.9 1793.82 1049.13 1789.15 1056.75 1784.48 1064.37 1777.75 1069.33 1768.98 1071.64L1767.9 1068.18C1774.82 1065.88 1779.96 1061.32 1783.33 1054.53 1786.7 1047.73 1788.38 1039.09 1788.38 1028.61 1788.38 1018.48 1786.71 1010.08 1783.35 1003.38 1780 996.689 1774.8 992.189 1767.77 989.883Z" fill-rule="evenodd"/><text fill="#000000" fill-opacity="0" font-family="Arial,Arial_MSFontService,sans-serif" font-size="85.2168" x="1767.77" y="1060.99">)</text><path d="M1331.27 1012.74 1337.65 1012.74 1337.65 1038.61 1362.13 1038.61 1362.13 1044.59 1337.65 1044.59 1337.65 1070.46 1331.27 1070.46 1331.27 1044.59 1306.79 1044.59 1306.79 1038.61 1331.27 1038.61Z" fill-rule="evenodd"/><text fill="#000000" fill-opacity="0" font-family="Arial,Arial_MSFontService,sans-serif" font-size="57.7246" x="1306.79" y="1063.25">+</text><path d="M1368.26 1240.51 1423.6 1240.51 1423.6 1246.49 1368.26 1246.49Z" fill-rule="evenodd"/><text fill="#000000" fill-opacity="0" font-family="Arial,Arial_MSFontService,sans-serif" font-size="5.97461" x="1368.26" y="1245.74">β’</text><path d="M1455.97 1072.58 1497.47 1072.58 1497.47 1088.26 1493.25 1088.26C1492.02 1083.43 1490.76 1080.3 1489.45 1078.87 1488.15 1077.43 1486.27 1076.71 1483.82 1076.71L1466.79 1076.71 1482.2 1099.98 1482.2 1102.63 1464.9 1126.48 1485.25 1126.48C1487.86 1126.48 1489.75 1125.9 1490.91 1124.73 1492.08 1123.56 1493.04 1120.91 1493.79 1116.78L1498.28 1116.78 1497.29 1133.9 1454.71 1133.9 1454.71 1131.69 1474.83 1104.02 1455.97 1074.78Z" fill-rule="evenodd"/><text fill="#000000" fill-opacity="0" font-family="Arial,Arial_MSFontService,sans-serif" font-size="61.3184" x="1454.71" y="1126.23">Ξ£</text><rect x="2413.5" y="807.5" width="272" height="592" stroke="#000000" stroke-width="6.875" stroke-miterlimit="8" fill="#FFFFFF"/><path d="M2282.55 1098.06 2390.56 1099.61 2390.46 1106.49 2282.45 1104.94ZM2386.13 1089.23 2413.43 1103.38 2385.73 1116.73Z"/><path d="M2523.14 879.709C2524.25 879.709 2525.22 879.835 2526.06 880.085 2526.9 880.336 2527.65 880.721 2528.29 881.24 2528.94 881.759 2529.51 882.431 2530.01 883.254 2530.51 884.078 2530.99 885.197 2531.46 886.611 2531.93 888.026 2532.36 889.78 2532.78 891.875 2533.19 893.97 2533.55 896.145 2533.88 898.401L2534.41 898.401C2537.85 893.567 2540.46 890.031 2542.23 887.793 2544 885.555 2545.5 883.89 2546.71 882.798 2547.93 881.706 2549.1 880.936 2550.23 880.488 2551.36 880.041 2552.85 879.817 2554.72 879.817 2556.4 879.817 2557.78 880.032 2558.85 880.461L2556.7 890.183 2552.94 890.183C2552.73 888.679 2552.1 887.927 2551.06 887.927 2550.74 887.927 2550.4 887.981 2550.04 888.088 2549.69 888.196 2549.25 888.428 2548.73 888.786 2548.21 889.145 2547.45 889.843 2546.45 890.881 2545.44 891.92 2544.31 893.191 2543.06 894.695 2541.81 896.199 2540.52 897.774 2539.19 899.421L2535.54 903.987C2536.19 907.424 2536.8 910.396 2537.37 912.903 2537.94 915.409 2538.45 917.495 2538.9 919.16 2539.35 920.825 2539.74 922.141 2540.08 923.108 2540.42 924.075 2540.79 924.8 2541.18 925.283 2541.58 925.766 2541.98 926.107 2542.39 926.304 2542.8 926.501 2543.28 926.599 2543.81 926.599 2544.78 926.599 2545.72 926.223 2546.63 925.471 2547.55 924.719 2548.86 923.018 2550.58 920.369L2554.07 922.678C2551.57 926.402 2549.3 929.025 2547.28 930.547 2545.25 932.069 2542.85 932.829 2540.05 932.829 2538.51 932.829 2537.21 932.552 2536.13 931.997 2535.06 931.442 2534.13 930.556 2533.34 929.338 2532.55 928.121 2531.85 926.223 2531.25 923.645 2530.14 919.062 2529.46 915.552 2529.2 913.118L2528.67 913.118C2524.87 918.453 2522.05 922.284 2520.21 924.612 2518.36 926.939 2516.84 928.658 2515.64 929.768 2514.44 930.878 2513.28 931.657 2512.15 932.104 2511.02 932.552 2509.53 932.776 2507.67 932.776 2505.98 932.776 2504.6 932.561 2503.53 932.131L2505.68 922.41 2509.44 922.41C2509.65 923.913 2510.28 924.665 2511.32 924.665 2511.82 924.665 2512.35 924.531 2512.9 924.263 2513.46 923.994 2514.25 923.349 2515.29 922.329 2516.33 921.308 2517.76 919.706 2519.59 917.522 2521.42 915.338 2524.07 912.061 2527.54 907.693 2527 904.864 2526.45 902.143 2525.87 899.529 2525.3 896.915 2524.71 894.48 2524.1 892.224 2523.49 889.968 2522.99 888.491 2522.6 887.793 2522.2 887.095 2521.78 886.611 2521.34 886.343 2520.89 886.074 2520.32 885.94 2519.64 885.94 2518.89 885.94 2518.21 886.11 2517.6 886.45 2516.99 886.79 2516.33 887.381 2515.62 888.223 2514.9 889.064 2513.95 890.38 2512.77 892.17L2509.28 889.861C2511.53 886.459 2513.7 883.917 2515.78 882.234 2517.85 880.551 2520.31 879.709 2523.14 879.709Z" fill-rule="evenodd"/><text fill="#000000" fill-opacity="0" font-family="Arial,Arial_MSFontService,sans-serif" font-size="53.1201" x="2503.53" y="926.189">π‘¥</text><path d="M2523.14 1011.71C2524.25 1011.71 2525.22 1011.83 2526.06 1012.09 2526.9 1012.34 2527.65 1012.72 2528.29 1013.24 2528.94 1013.76 2529.51 1014.43 2530.01 1015.25 2530.51 1016.08 2530.99 1017.2 2531.46 1018.61 2531.93 1020.03 2532.36 1021.78 2532.78 1023.87 2533.19 1025.97 2533.55 1028.14 2533.88 1030.4L2534.41 1030.4C2537.85 1025.57 2540.46 1022.03 2542.23 1019.79 2544 1017.55 2545.5 1015.89 2546.71 1014.8 2547.93 1013.71 2549.1 1012.94 2550.23 1012.49 2551.36 1012.04 2552.85 1011.82 2554.72 1011.82 2556.4 1011.82 2557.78 1012.03 2558.85 1012.46L2556.7 1022.18 2552.94 1022.18C2552.73 1020.68 2552.1 1019.93 2551.06 1019.93 2550.74 1019.93 2550.4 1019.98 2550.04 1020.09 2549.69 1020.2 2549.25 1020.43 2548.73 1020.79 2548.21 1021.14 2547.45 1021.84 2546.45 1022.88 2545.44 1023.92 2544.31 1025.19 2543.06 1026.69 2541.81 1028.2 2540.52 1029.77 2539.19 1031.42L2535.54 1035.99C2536.19 1039.42 2536.8 1042.4 2537.37 1044.9 2537.94 1047.41 2538.45 1049.49 2538.9 1051.16 2539.35 1052.83 2539.74 1054.14 2540.08 1055.11 2540.42 1056.07 2540.79 1056.8 2541.18 1057.28 2541.58 1057.77 2541.98 1058.11 2542.39 1058.3 2542.8 1058.5 2543.28 1058.6 2543.81 1058.6 2544.78 1058.6 2545.72 1058.22 2546.63 1057.47 2547.55 1056.72 2548.86 1055.02 2550.58 1052.37L2554.07 1054.68C2551.57 1058.4 2549.3 1061.02 2547.28 1062.55 2545.25 1064.07 2542.85 1064.83 2540.05 1064.83 2538.51 1064.83 2537.21 1064.55 2536.13 1064 2535.06 1063.44 2534.13 1062.56 2533.34 1061.34 2532.55 1060.12 2531.85 1058.22 2531.25 1055.64 2530.14 1051.06 2529.46 1047.55 2529.2 1045.12L2528.67 1045.12C2524.87 1050.45 2522.05 1054.28 2520.21 1056.61 2518.36 1058.94 2516.84 1060.66 2515.64 1061.77 2514.44 1062.88 2513.28 1063.66 2512.15 1064.1 2511.02 1064.55 2509.53 1064.78 2507.67 1064.78 2505.98 1064.78 2504.6 1064.56 2503.53 1064.13L2505.68 1054.41 2509.44 1054.41C2509.65 1055.91 2510.28 1056.67 2511.32 1056.67 2511.82 1056.67 2512.35 1056.53 2512.9 1056.26 2513.46 1055.99 2514.25 1055.35 2515.29 1054.33 2516.33 1053.31 2517.76 1051.71 2519.59 1049.52 2521.42 1047.34 2524.07 1044.06 2527.54 1039.69 2527 1036.86 2526.45 1034.14 2525.87 1031.53 2525.3 1028.91 2524.71 1026.48 2524.1 1024.22 2523.49 1021.97 2522.99 1020.49 2522.6 1019.79 2522.2 1019.09 2521.78 1018.61 2521.34 1018.34 2520.89 1018.07 2520.32 1017.94 2519.64 1017.94 2518.89 1017.94 2518.21 1018.11 2517.6 1018.45 2516.99 1018.79 2516.33 1019.38 2515.62 1020.22 2514.9 1021.06 2513.95 1022.38 2512.77 1024.17L2509.28 1021.86C2511.53 1018.46 2513.7 1015.92 2515.78 1014.23 2517.85 1012.55 2520.31 1011.71 2523.14 1011.71Z" fill-rule="evenodd"/><text fill="#000000" fill-opacity="0" font-family="Arial,Arial_MSFontService,sans-serif" font-size="53.1201" x="2503.53" y="1058.19">π‘¥</text><path d="M2537.58 989.258C2539.26 989.258 2540.68 989.858 2541.82 991.057 2542.97 992.257 2543.54 993.77 2543.54 995.596 2543.54 997.422 2542.97 998.935 2541.82 1000.13 2540.68 1001.33 2539.26 1001.93 2537.58 1001.93 2535.86 1001.93 2534.43 1001.33 2533.28 1000.13 2532.14 998.935 2531.56 997.422 2531.56 995.596 2531.56 993.77 2532.14 992.257 2533.28 991.057 2534.43 989.858 2535.86 989.258 2537.58 989.258Z" fill-rule="evenodd"/><text fill="#000000" fill-opacity="0" font-family="Arial,Arial_MSFontService,sans-serif" font-size="12.6758" x="2531.56" y="1000.35">α¶</text><path d="M2517.7 1161.22C2516.02 1168.99 2515.18 1175.52 2515.18 1180.82 2515.18 1184.83 2515.79 1187.78 2517 1189.66 2518.22 1191.54 2520.19 1192.48 2522.91 1192.48 2526.92 1192.48 2530.73 1189.78 2534.33 1184.4 2537.92 1179.01 2540.98 1171.28 2543.48 1161.22ZM2539.72 1125.02C2535.53 1125.02 2531.66 1127.67 2528.1 1132.97 2524.53 1138.27 2521.5 1145.86 2518.99 1155.74L2544.72 1155.74C2546.4 1148.19 2547.24 1141.69 2547.24 1136.24 2547.24 1132.48 2546.63 1129.67 2545.42 1127.81 2544.2 1125.95 2542.3 1125.02 2539.72 1125.02ZM2540.37 1120.67C2550.75 1120.67 2555.94 1127.26 2555.94 1140.43 2555.94 1144.16 2555.52 1148.61 2554.68 1153.78 2553.84 1158.95 2552.51 1164.23 2550.68 1169.6 2548.85 1174.97 2546.55 1179.72 2543.75 1183.86 2540.96 1187.99 2537.74 1191.19 2534.08 1193.45 2530.43 1195.7 2526.49 1196.83 2522.27 1196.83 2516.93 1196.83 2512.96 1195.2 2510.34 1191.94 2507.73 1188.68 2506.42 1183.8 2506.42 1177.28 2506.42 1173.73 2506.82 1169.37 2507.6 1164.17 2508.39 1158.98 2509.69 1153.67 2511.5 1148.25 2513.31 1142.82 2515.63 1138.01 2518.48 1133.8 2521.33 1129.59 2524.6 1126.35 2528.31 1124.08 2532.02 1121.8 2536.04 1120.67 2540.37 1120.67Z" fill-rule="evenodd"/><text fill="#000000" fill-opacity="0" font-family="Arial,Arial_MSFontService,sans-serif" font-size="76.1621" x="2506.42" y="1187.31">πƒ</text><path d="M2517.7 1300.23C2516.02 1308 2515.18 1314.54 2515.18 1319.84 2515.18 1323.85 2515.79 1326.79 2517 1328.67 2518.22 1330.55 2520.19 1331.49 2522.91 1331.49 2526.92 1331.49 2530.73 1328.8 2534.33 1323.41 2537.92 1318.02 2540.98 1310.29 2543.48 1300.23ZM2539.72 1264.03C2535.53 1264.03 2531.66 1266.68 2528.1 1271.98 2524.53 1277.28 2521.5 1284.87 2518.99 1294.75L2544.72 1294.75C2546.4 1287.2 2547.24 1280.7 2547.24 1275.26 2547.24 1271.5 2546.63 1268.69 2545.42 1266.82 2544.2 1264.96 2542.3 1264.03 2539.72 1264.03ZM2540.37 1259.68C2550.75 1259.68 2555.94 1266.27 2555.94 1279.45 2555.94 1283.17 2555.52 1287.62 2554.68 1292.79 2553.84 1297.97 2552.51 1303.24 2550.68 1308.61 2548.85 1313.98 2546.55 1318.73 2543.75 1322.87 2540.96 1327.01 2537.74 1330.2 2534.08 1332.46 2530.43 1334.71 2526.49 1335.84 2522.27 1335.84 2516.93 1335.84 2512.96 1334.21 2510.34 1330.95 2507.73 1327.7 2506.42 1322.81 2506.42 1316.29 2506.42 1312.75 2506.82 1308.38 2507.6 1303.19 2508.39 1297.99 2509.69 1292.69 2511.5 1287.26 2513.31 1281.84 2515.63 1277.02 2518.48 1272.81 2521.33 1268.6 2524.6 1265.36 2528.31 1263.09 2532.02 1260.82 2536.04 1259.68 2540.37 1259.68Z" fill-rule="evenodd"/><text fill="#000000" fill-opacity="0" font-family="Arial,Arial_MSFontService,sans-serif" font-size="76.1621" x="2506.42" y="1326.32">πƒ</text><path d="M2539.78 1237.4C2541.46 1237.4 2542.88 1238 2544.02 1239.2 2545.17 1240.4 2545.74 1241.91 2545.74 1243.74 2545.74 1245.56 2545.17 1247.08 2544.02 1248.28 2542.88 1249.48 2541.46 1250.08 2539.78 1250.08 2538.06 1250.08 2536.63 1249.48 2535.48 1248.28 2534.33 1247.08 2533.76 1245.56 2533.76 1243.74 2533.76 1241.91 2534.33 1240.4 2535.48 1239.2 2536.63 1238 2538.06 1237.4 2539.78 1237.4Z" fill-rule="evenodd"/><text fill="#000000" fill-opacity="0" font-family="Arial,Arial_MSFontService,sans-serif" font-size="12.6758" x="2533.76" y="1248.49">α¶</text><path d="M1877.85 1538.7 1474.06 1538.7 1474.06 1219.42 1480.94 1219.42 1480.94 1535.27 1477.5 1531.83 1877.85 1531.83ZM1463.75 1224 1477.5 1196.5 1491.25 1224Z"/><rect x="1876.5" y="1717.5" width="401" height="272" stroke="#000000" stroke-width="6.875" stroke-miterlimit="8" fill="#F6C6AD"/><path d="M1982.79 1816.21C1980.57 1816.21 1978.24 1816.26 1975.8 1816.37L1968.5 1848.92 1974.09 1848.92C1978.42 1848.92 1981.92 1848.47 1984.59 1847.57 1987.25 1846.68 1989.44 1845.29 1991.14 1843.41 1992.84 1841.53 1994.16 1839.3 1995.09 1836.73 1996.02 1834.15 1996.48 1831.32 1996.48 1828.24 1996.48 1824.09 1995.43 1821.04 1993.31 1819.11 1991.2 1817.17 1987.69 1816.21 1982.79 1816.21ZM2090.8 1816.15C2089.22 1816.15 2087.52 1816.21 2085.7 1816.32L2071.79 1879.86C2072.82 1879.96 2074.81 1880.02 2077.75 1880.02 2083.55 1880.02 2088.47 1879 2092.52 1876.98 2096.56 1874.96 2100.06 1871.79 2102.99 1867.47 2105.93 1863.16 2108.09 1858.61 2109.49 1853.83 2110.89 1849.05 2111.59 1844.01 2111.59 1838.71 2111.59 1831.23 2109.84 1825.6 2106.35 1821.82 2102.86 1818.04 2097.67 1816.15 2090.8 1816.15ZM2070.28 1811.48 2090.64 1811.48C2096.05 1811.48 2100.43 1811.89 2103.8 1812.72 2107.16 1813.54 2110.31 1815.03 2113.22 1817.17 2116.14 1819.32 2118.34 1822.18 2119.8 1825.74 2121.27 1829.3 2122.01 1833.52 2122.01 1838.39 2122.01 1843.22 2121.45 1847.84 2120.34 1852.25 2119.23 1856.65 2117.64 1860.71 2115.56 1864.41 2113.48 1868.12 2111 1871.34 2108.09 1874.08 2105.19 1876.82 2102.38 1878.92 2099.66 1880.39 2096.94 1881.86 2093.9 1882.96 2090.53 1883.7 2087.17 1884.43 2083.24 1884.8 2078.77 1884.8L2056.21 1884.8 2056.8 1882.16C2058.16 1881.95 2059.18 1881.6 2059.86 1881.12 2060.54 1880.63 2061.12 1879.96 2061.58 1879.1 2062.05 1878.24 2062.48 1877.2 2062.87 1875.96 2063.26 1874.73 2063.85 1872.34 2064.64 1868.79L2073.77 1827.43C2074.56 1823.85 2074.96 1820.97 2074.96 1818.79 2074.96 1817.1 2074.53 1815.93 2073.69 1815.27 2072.85 1814.61 2071.52 1814.22 2069.69 1814.11ZM2028.28 1811.48 2049.77 1811.48 2049.18 1814.11C2047.82 1814.4 2046.84 1814.72 2046.25 1815.08 2045.66 1815.44 2045.13 1815.97 2044.66 1816.69 2044.2 1817.41 2043.72 1818.53 2043.21 1820.05 2042.71 1821.57 2042.09 1824.05 2041.33 1827.49L2032.15 1869.17C2031.68 1871.28 2031.38 1872.95 2031.24 1874.19 2031.09 1875.42 2031.02 1876.54 2031.02 1877.55 2031.02 1879.16 2031.42 1880.29 2032.23 1880.96 2033.04 1881.62 2034.39 1882.02 2036.29 1882.16L2035.69 1884.8 2014.21 1884.8 2014.8 1882.16C2016.16 1881.95 2017.18 1881.6 2017.86 1881.12 2018.54 1880.63 2019.12 1879.96 2019.58 1879.1 2020.05 1878.24 2020.48 1877.2 2020.87 1875.96 2021.26 1874.73 2021.85 1872.34 2022.64 1868.79L2031.77 1827.43C2032.56 1823.85 2032.96 1820.97 2032.96 1818.79 2032.96 1817.1 2032.53 1815.93 2031.69 1815.27 2030.85 1814.61 2029.52 1814.22 2027.69 1814.11ZM1960.28 1811.48 1983.97 1811.48C1988.23 1811.48 1991.73 1811.81 1994.47 1812.47 1997.21 1813.14 1999.46 1814.16 2001.24 1815.54 2003.01 1816.91 2004.33 1818.66 2005.21 1820.77 2006.09 1822.89 2006.53 1825.34 2006.53 1828.13 2006.53 1833.5 2005.26 1838.16 2002.71 1842.1 2000.17 1846.04 1996.73 1848.94 1992.37 1850.8 1988.02 1852.66 1982.81 1853.59 1976.72 1853.59 1973.07 1853.59 1970.02 1853.52 1967.59 1853.38L1964.15 1869.17C1963.83 1870.63 1963.6 1871.76 1963.48 1872.55 1963.35 1873.34 1963.25 1874.19 1963.16 1875.1 1963.07 1876.01 1963.02 1876.83 1963.02 1877.55 1963.02 1878.66 1963.2 1879.52 1963.56 1880.15 1963.92 1880.78 1964.45 1881.23 1965.17 1881.52 1965.89 1881.81 1967.12 1882.02 1968.88 1882.16L1968.29 1884.8 1946.21 1884.8 1946.8 1882.16C1948.16 1881.95 1949.18 1881.6 1949.86 1881.12 1950.54 1880.63 1951.12 1879.96 1951.58 1879.1 1952.05 1878.24 1952.48 1877.2 1952.87 1875.96 1953.26 1874.73 1953.85 1872.34 1954.64 1868.79L1963.77 1827.43C1964.56 1823.85 1964.96 1821.02 1964.96 1818.95 1964.96 1817.19 1964.54 1815.97 1963.72 1815.29 1962.9 1814.61 1961.55 1814.22 1959.69 1814.11Z" fill-rule="evenodd"/><text fill="#000000" fill-opacity="0" font-family="Arial,Arial_MSFontService,sans-serif" font-size="73.3154" x="1946.21" y="1875.63">π‘ƒπΌπ·</text><path d="M2187.52 1810.62C2194.18 1810.62 2199.22 1812.08 2202.62 1815 2206.02 1817.92 2207.72 1822.15 2207.72 1827.7 2207.72 1829.6 2207.53 1831.35 2207.16 1832.94 2206.78 1834.53 2206.19 1836.11 2205.38 1837.67 2204.58 1839.22 2203.49 1840.9 2202.13 1842.69 2200.77 1844.48 2199.27 1846.29 2197.62 1848.14 2195.97 1849.98 2193.13 1853.05 2189.08 1857.35 2182.28 1864.55 2177.28 1870.83 2174.1 1876.2L2194.35 1876.2C2196.1 1876.2 2197.51 1876.1 2198.59 1875.88 2199.66 1875.67 2200.52 1875.31 2201.17 1874.81 2201.81 1874.31 2202.32 1873.65 2202.7 1872.85 2203.07 1872.04 2203.55 1870.8 2204.12 1869.11L2208.69 1869.11 2207.77 1884.8 2163.57 1884.8 2163.57 1882.22C2165.11 1878.46 2167.19 1874.61 2169.8 1870.67 2172.41 1866.73 2176.12 1862.09 2180.92 1856.76 2185.07 1852.18 2188.06 1848.7 2189.89 1846.34 2191.89 1843.76 2193.39 1841.53 2194.37 1839.65 2195.36 1837.77 2196.06 1836 2196.49 1834.34 2196.92 1832.67 2197.14 1831 2197.14 1829.31 2197.14 1826.63 2196.71 1824.26 2195.85 1822.2 2194.99 1820.14 2193.67 1818.52 2191.9 1817.34 2190.13 1816.15 2187.9 1815.56 2185.21 1815.56 2178.52 1815.56 2174.01 1819.29 2171.68 1826.74L2165.18 1826.74 2165.18 1816.42C2169.51 1814.38 2173.57 1812.9 2177.35 1811.99 2181.12 1811.08 2184.52 1810.62 2187.52 1810.62Z" fill-rule="evenodd"/><text fill="#000000" fill-opacity="0" font-family="Arial,Arial_MSFontService,sans-serif" font-size="74.1748" x="2163.57" y="1875.52">2</text><path d="M1876.52 1856.44 1254.88 1856.44 1254.88 1098.06 1359.58 1098.06 1359.58 1104.94 1258.31 1104.94 1261.75 1101.5 1261.75 1853 1258.31 1849.56 1876.52 1849.56ZM1355 1087.75 1382.5 1101.5 1355 1115.25Z"/><path d="M0 3.4375-107.999 3.4375-104.562 0-104.562 363.34-107.999 359.903 388.087 359.903 388.087 366.778-111.437 366.778-111.437-3.4375 0-3.4375ZM383.503 349.59 411.003 363.34 383.503 377.09Z" transform="matrix(-1 1.22465e-16 1.22465e-16 1 2688.5 1164.5)"/><path d="M2869.68 905.5 2869.68 1849.8 2299.42 1849.8 2299.42 1842.92 2866.24 1842.92 2862.8 1846.36 2862.8 905.5ZM2304 1860.11 2276.5 1846.36 2304 1832.61Z"/><path d="M2361.34 1464.56C2359.93 1471.06 2359.23 1476.52 2359.23 1480.95 2359.23 1484.31 2359.74 1486.77 2360.76 1488.34 2361.78 1489.92 2363.42 1490.7 2365.7 1490.7 2369.05 1490.7 2372.23 1488.45 2375.24 1483.94 2378.25 1479.43 2380.81 1472.97 2382.9 1464.56ZM2379.76 1434.28C2376.26 1434.28 2373.01 1436.5 2370.03 1440.93 2367.05 1445.36 2364.52 1451.71 2362.42 1459.98L2383.94 1459.98C2385.34 1453.66 2386.05 1448.22 2386.05 1443.67 2386.05 1440.52 2385.54 1438.17 2384.52 1436.62 2383.5 1435.06 2381.92 1434.28 2379.76 1434.28ZM2380.3 1430.64C2388.98 1430.64 2393.33 1436.15 2393.33 1447.17 2393.33 1450.29 2392.97 1454.01 2392.27 1458.34 2391.57 1462.66 2390.45 1467.07 2388.92 1471.56 2387.4 1476.06 2385.46 1480.03 2383.13 1483.49 2380.79 1486.95 2378.1 1489.62 2375.04 1491.51 2371.99 1493.4 2368.69 1494.34 2365.16 1494.34 2360.7 1494.34 2357.37 1492.98 2355.19 1490.25 2353 1487.53 2351.91 1483.44 2351.91 1477.99 2351.91 1475.02 2352.24 1471.37 2352.9 1467.03 2353.55 1462.69 2354.64 1458.25 2356.15 1453.71 2357.67 1449.17 2359.61 1445.14 2361.99 1441.62 2364.37 1438.11 2367.11 1435.4 2370.21 1433.49 2373.31 1431.59 2376.67 1430.64 2380.3 1430.64Z" fill-rule="evenodd"/><text fill="#000000" fill-opacity="0" font-family="Arial,Arial_MSFontService,sans-serif" font-size="63.6992" x="2351.91" y="1486.38">πƒ</text><path d="M2436.25 1428.71 2437.46 1432.17C2430.45 1434.47 2425.27 1438.97 2421.9 1445.67 2418.53 1452.36 2416.84 1460.77 2416.84 1470.89 2416.84 1481.37 2418.53 1490.01 2421.9 1496.81 2425.27 1503.61 2430.41 1508.16 2437.33 1510.47L2436.25 1513.93C2427.47 1511.62 2420.75 1506.66 2416.08 1499.03 2411.41 1491.41 2409.07 1482.18 2409.07 1471.34 2409.07 1460.53 2411.41 1451.3 2416.1 1443.65 2420.79 1435.99 2427.5 1431.02 2436.25 1428.71Z" fill-rule="evenodd"/><text fill="#000000" fill-opacity="0" font-family="Arial,Arial_MSFontService,sans-serif" font-size="85.2168" x="2409.07" y="1503.27">(</text><path d="M2456.36 1439.58 2462.56 1439.58 2460.09 1450.68 2473.75 1450.68 2472.76 1455.21 2459.1 1455.21 2455.1 1472.64C2454.33 1476.03 2453.83 1478.46 2453.62 1479.94 2453.41 1481.43 2453.31 1482.62 2453.31 1483.51 2453.31 1487.23 2454.85 1489.08 2457.93 1489.08 2459.25 1489.08 2460.65 1488.58 2462.13 1487.58 2463.62 1486.58 2465.38 1484.86 2467.41 1482.44L2470.02 1485.13C2467.41 1488.28 2464.91 1490.6 2462.49 1492.09 2460.08 1493.59 2457.56 1494.34 2454.92 1494.34 2448.67 1494.34 2445.54 1491.18 2445.54 1484.86 2445.54 1482.86 2445.79 1480.74 2446.3 1478.53L2451.6 1455.21 2444.05 1455.21 2444.73 1452.11C2446.49 1452.08 2447.83 1451.95 2448.75 1451.71 2449.66 1451.47 2450.43 1451.14 2451.04 1450.72 2451.65 1450.3 2452.21 1449.7 2452.72 1448.92 2453.23 1448.15 2453.73 1447.15 2454.21 1445.94 2454.69 1444.72 2455.4 1442.61 2456.36 1439.58Z" fill-rule="evenodd"/><text fill="#000000" fill-opacity="0" font-family="Arial,Arial_MSFontService,sans-serif" font-size="54.7598" x="2444.05" y="1487.5">π‘΅</text><path d="M2480.06 1428.71C2488.8 1431.02 2495.52 1435.99 2500.2 1443.65 2504.89 1451.3 2507.24 1460.53 2507.24 1471.34 2507.24 1482.18 2504.9 1491.41 2500.23 1499.03 2495.56 1506.66 2488.83 1511.62 2480.06 1513.93L2478.98 1510.47C2485.9 1508.16 2491.04 1503.61 2494.41 1496.81 2497.78 1490.01 2499.46 1481.37 2499.46 1470.89 2499.46 1460.77 2497.79 1452.36 2494.43 1445.67 2491.08 1438.97 2485.88 1434.47 2478.84 1432.17Z" fill-rule="evenodd"/><text fill="#000000" fill-opacity="0" font-family="Arial,Arial_MSFontService,sans-serif" font-size="85.2168" x="2478.84" y="1503.27">)</text><path d="M0 0 182.76 0.000360892" stroke="#000000" stroke-width="6.875" stroke-miterlimit="8" fill="none" fill-rule="evenodd" transform="matrix(-1 0 0 1 2866.26 905.5)"/></g></svg>