<svg width="1882" height="1047" xmlns="http://www.w3.org/2000/svg" xmlns:xlink="http://www.w3.org/1999/xlink" xml:space="preserve" overflow="hidden"><g transform="translate(-1333 -946)"><rect x="1881.5" y="965.5" width="401" height="273" stroke="#000000" stroke-width="6.875" stroke-miterlimit="8" fill="#84E291"/><path d="M2079.34 1077.67 2060.22 1111.51 2081.22 1111.51 2080.31 1094.22C2080.2 1091.85 2080.11 1088.9 2080.04 1085.35 2079.97 1081.81 2079.93 1079.25 2079.93 1077.67ZM1947.02 1071.93C1944.8 1071.93 1942.48 1071.98 1940.04 1072.09L1932.74 1104.64 1938.32 1104.64C1942.65 1104.64 1946.15 1104.19 1948.82 1103.29 1951.49 1102.4 1953.67 1101.01 1955.38 1099.13 1957.08 1097.25 1958.39 1095.02 1959.32 1092.44 1960.25 1089.87 1960.72 1087.04 1960.72 1083.96 1960.72 1079.8 1959.66 1076.76 1957.55 1074.83 1955.44 1072.89 1951.93 1071.93 1947.02 1071.93ZM2192.17 1067.2 2248.25 1067.2 2244.06 1086.11 2238.9 1086.11C2238.9 1082.63 2238.81 1080.03 2238.63 1078.29 2238.45 1076.55 2238.11 1075.23 2237.61 1074.32 2237.11 1073.4 2236.49 1072.78 2235.76 1072.44 2235.02 1072.1 2233.73 1071.93 2231.86 1071.93L2223.92 1071.93 2212.26 1124.89C2211.94 1126.28 2211.71 1127.39 2211.59 1128.22 2211.46 1129.04 2211.36 1129.91 2211.27 1130.82 2211.18 1131.73 2211.13 1132.55 2211.13 1133.26 2211.13 1134.37 2211.31 1135.24 2211.67 1135.87 2212.03 1136.5 2212.56 1136.95 2213.28 1137.24 2214 1137.53 2215.23 1137.74 2216.99 1137.88L2216.4 1140.52 2193.78 1140.52 2194.37 1137.88C2195.81 1137.67 2196.86 1137.38 2197.54 1137.02 2198.22 1136.67 2198.82 1136.11 2199.34 1135.36 2199.86 1134.61 2200.38 1133.43 2200.9 1131.81 2201.42 1130.2 2202.04 1127.77 2202.75 1124.51L2214.25 1071.93 2207.43 1071.93C2205.21 1071.93 2203.43 1072.25 2202.11 1072.89 2200.78 1073.54 2199.46 1074.74 2198.13 1076.49 2196.81 1078.25 2195.2 1081.18 2193.3 1085.3L2188.14 1085.3ZM2121.41 1067.2 2138.54 1067.2 2152.72 1109.04C2154.77 1115.06 2156.34 1120.14 2157.45 1124.3L2158.04 1124.3C2158.33 1122.11 2158.98 1118.48 2160 1113.39 2161.02 1108.31 2161.96 1103.87 2162.82 1100.07L2166.58 1083.15C2167.37 1079.61 2167.76 1076.73 2167.76 1074.51 2167.76 1072.82 2167.34 1071.65 2166.5 1070.99 2165.66 1070.32 2164.33 1069.94 2162.5 1069.83L2163.09 1067.2 2181.89 1067.2 2181.3 1069.83C2179.94 1070.12 2178.96 1070.44 2178.37 1070.8 2177.78 1071.16 2177.25 1071.69 2176.79 1072.41 2176.32 1073.13 2175.84 1074.25 2175.34 1075.77 2174.84 1077.29 2174.21 1079.77 2173.46 1083.21L2160.83 1140.52 2153.53 1140.52 2137.85 1094.43C2135.95 1088.92 2134.28 1083.42 2132.85 1077.94L2132.15 1077.94C2131.94 1079.77 2131.35 1083.25 2130.38 1088.39 2129.41 1093.53 2128.39 1098.55 2127.32 1103.46L2122.59 1124.89C2121.84 1128.29 2121.46 1131.08 2121.46 1133.26 2121.46 1134.88 2121.87 1136.01 2122.67 1136.68 2123.48 1137.34 2124.83 1137.74 2126.73 1137.88L2126.14 1140.52 2107.34 1140.52 2107.93 1137.88C2109.29 1137.67 2110.31 1137.32 2110.99 1136.84 2111.67 1136.35 2112.24 1135.68 2112.71 1134.82 2113.18 1133.96 2113.6 1132.92 2114 1131.68 2114.39 1130.44 2114.98 1128.05 2115.77 1124.51L2124.9 1083.15C2125.26 1081.61 2125.55 1080.14 2125.76 1078.75 2125.98 1077.35 2126.08 1075.94 2126.08 1074.51 2126.08 1072.82 2125.66 1071.65 2124.82 1070.99 2123.98 1070.32 2122.65 1069.94 2120.82 1069.83ZM1992.52 1067.2 2014 1067.2 2013.41 1069.83C2012.05 1070.12 2011.08 1070.44 2010.48 1070.8 2009.89 1071.16 2009.37 1071.69 2008.9 1072.41 2008.43 1073.13 2007.95 1074.25 2007.45 1075.77 2006.95 1077.29 2006.32 1079.77 2005.57 1083.21L1994.08 1135.57 2007.29 1135.57C2009.69 1135.57 2011.58 1135.34 2012.96 1134.88 2014.33 1134.41 2015.64 1133.56 2016.88 1132.32 2018.11 1131.09 2019.32 1129.42 2020.5 1127.3 2021.68 1125.19 2022.88 1122.56 2024.1 1119.41L2029.31 1119.41 2023.89 1140.52 1978.45 1140.52 1979.04 1137.88C1980.4 1137.67 1981.42 1137.32 1982.1 1136.84 1982.78 1136.35 1983.35 1135.68 1983.82 1134.82 1984.28 1133.96 1984.71 1132.92 1985.11 1131.68 1985.5 1130.44 1986.09 1128.05 1986.88 1124.51L1996.01 1083.15C1996.8 1079.57 1997.19 1076.69 1997.19 1074.51 1997.19 1072.82 1996.77 1071.65 1995.93 1070.99 1995.09 1070.32 1993.75 1069.94 1991.93 1069.83ZM1924.52 1067.2 1948.2 1067.2C1952.47 1067.2 1955.97 1067.53 1958.71 1068.19 1961.44 1068.86 1963.7 1069.88 1965.47 1071.26 1967.25 1072.63 1968.57 1074.38 1969.45 1076.49 1970.32 1078.6 1970.76 1081.06 1970.76 1083.85 1970.76 1089.22 1969.49 1093.88 1966.95 1097.82 1964.41 1101.75 1960.96 1104.65 1956.61 1106.52 1952.26 1108.38 1947.04 1109.31 1940.95 1109.31 1937.3 1109.31 1934.26 1109.24 1931.82 1109.09L1928.39 1124.89C1928.06 1126.35 1927.84 1127.48 1927.71 1128.27 1927.59 1129.06 1927.48 1129.91 1927.39 1130.82 1927.3 1131.73 1927.26 1132.55 1927.26 1133.26 1927.26 1134.37 1927.44 1135.24 1927.79 1135.87 1928.15 1136.5 1928.69 1136.95 1929.41 1137.24 1930.12 1137.53 1931.36 1137.74 1933.11 1137.88L1932.52 1140.52 1910.45 1140.52 1911.04 1137.88C1912.4 1137.67 1913.42 1137.32 1914.1 1136.84 1914.78 1136.35 1915.35 1135.68 1915.82 1134.82 1916.28 1133.96 1916.71 1132.92 1917.11 1131.68 1917.5 1130.44 1918.09 1128.05 1918.88 1124.51L1928.01 1083.15C1928.8 1079.57 1929.19 1076.74 1929.19 1074.67 1929.19 1072.91 1928.78 1071.69 1927.96 1071.01 1927.13 1070.33 1925.79 1069.94 1923.93 1069.83ZM2079.66 1066.34 2087.77 1066.34 2091.64 1126.23C2091.82 1129.06 2092.14 1131.27 2092.61 1132.86 2093.07 1134.46 2093.71 1135.64 2094.51 1136.41 2095.32 1137.18 2096.49 1137.67 2098.03 1137.88L2097.44 1140.52 2075.1 1140.52 2075.69 1137.88C2077.8 1137.7 2079.38 1136.88 2080.41 1135.41 2081.45 1133.95 2081.97 1131.37 2081.97 1127.68 2081.97 1126.28 2081.92 1124.76 2081.81 1123.11L2081.44 1116.18 2057.8 1116.18 2054.85 1121.45C2053.45 1123.92 2052.43 1126.04 2051.79 1127.81 2051.14 1129.59 2050.82 1131.15 2050.82 1132.51 2050.82 1135.52 2052.63 1137.31 2056.24 1137.88L2055.65 1140.52 2033.69 1140.52 2034.28 1137.88C2035.39 1137.74 2036.43 1137.3 2037.42 1136.57 2038.4 1135.83 2039.45 1134.72 2040.56 1133.24 2041.67 1131.75 2043.23 1129.29 2045.23 1125.85Z" fill-rule="evenodd"/><text fill="#000000" fill-opacity="0" font-family="Arial,Arial_MSFontService,sans-serif" font-size="74.1748" x="1910.45" y="1131.24">π‘ƒπΏπ΄π‘π‘‡</text><path d="M1572.5 1098.06 1859.23 1098.06 1859.23 1104.94 1572.5 1104.94ZM1854.65 1087.75 1882.15 1101.5 1854.65 1115.25Z"/><path d="M1462.5 1102C1462.5 1049.81 1504.81 1007.5 1557 1007.5 1609.19 1007.5 1651.5 1049.81 1651.5 1102 1651.5 1154.19 1609.19 1196.5 1557 1196.5 1504.81 1196.5 1462.5 1154.19 1462.5 1102Z" stroke="#000000" stroke-width="6.875" stroke-miterlimit="8" fill="#FFFFFF" fill-rule="evenodd"/><rect x="1877.5" y="1399.5" width="401" height="272" stroke="#000000" stroke-width="6.875" stroke-miterlimit="8" fill="#83CBEB"/><path d="M1983.88 1498.23C1981.66 1498.23 1979.33 1498.28 1976.89 1498.39L1969.59 1530.94 1975.18 1530.94C1979.51 1530.94 1983.01 1530.49 1985.68 1529.59 1988.34 1528.7 1990.53 1527.31 1992.23 1525.43 1993.93 1523.55 1995.25 1521.32 1996.18 1518.75 1997.11 1516.17 1997.57 1513.34 1997.57 1510.26 1997.57 1506.11 1996.52 1503.06 1994.4 1501.13 1992.29 1499.19 1988.78 1498.23 1983.88 1498.23ZM2091.89 1498.17C2090.31 1498.17 2088.61 1498.23 2086.79 1498.34L2072.88 1561.88C2073.91 1561.98 2075.9 1562.04 2078.84 1562.04 2084.64 1562.04 2089.56 1561.02 2093.61 1559 2097.65 1556.98 2101.15 1553.81 2104.08 1549.49 2107.02 1545.18 2109.18 1540.63 2110.58 1535.85 2111.98 1531.07 2112.68 1526.03 2112.68 1520.73 2112.68 1513.25 2110.93 1507.62 2107.44 1503.84 2103.95 1500.06 2098.76 1498.17 2091.89 1498.17ZM2071.37 1493.5 2091.73 1493.5C2097.13 1493.5 2101.52 1493.91 2104.89 1494.74 2108.25 1495.56 2111.4 1497.05 2114.31 1499.19 2117.23 1501.34 2119.42 1504.2 2120.89 1507.76 2122.36 1511.32 2123.09 1515.54 2123.09 1520.41 2123.09 1525.24 2122.54 1529.86 2121.43 1534.27 2120.32 1538.67 2118.73 1542.73 2116.65 1546.43 2114.57 1550.14 2112.08 1553.36 2109.18 1556.1 2106.28 1558.84 2103.47 1560.94 2100.75 1562.41 2098.03 1563.88 2094.99 1564.98 2091.62 1565.72 2088.25 1566.45 2084.33 1566.82 2079.86 1566.82L2057.3 1566.82 2057.89 1564.18C2059.25 1563.97 2060.27 1563.62 2060.95 1563.14 2061.63 1562.65 2062.2 1561.98 2062.67 1561.12 2063.14 1560.26 2063.57 1559.22 2063.96 1557.98 2064.35 1556.75 2064.94 1554.36 2065.73 1550.81L2074.86 1509.45C2075.65 1505.87 2076.04 1502.99 2076.04 1500.81 2076.04 1499.12 2075.62 1497.95 2074.78 1497.29 2073.94 1496.63 2072.61 1496.24 2070.78 1496.13ZM2029.37 1493.5 2050.86 1493.5 2050.26 1496.13C2048.9 1496.42 2047.93 1496.74 2047.34 1497.1 2046.75 1497.46 2046.22 1497.99 2045.75 1498.71 2045.29 1499.43 2044.8 1500.55 2044.3 1502.07 2043.8 1503.59 2043.18 1506.07 2042.42 1509.51L2033.24 1551.19C2032.77 1553.3 2032.47 1554.97 2032.33 1556.21 2032.18 1557.44 2032.11 1558.56 2032.11 1559.57 2032.11 1561.18 2032.51 1562.31 2033.32 1562.98 2034.12 1563.64 2035.48 1564.04 2037.37 1564.18L2036.78 1566.82 2015.3 1566.82 2015.89 1564.18C2017.25 1563.97 2018.27 1563.62 2018.95 1563.14 2019.63 1562.65 2020.2 1561.98 2020.67 1561.12 2021.14 1560.26 2021.57 1559.22 2021.96 1557.98 2022.35 1556.75 2022.94 1554.36 2023.73 1550.81L2032.86 1509.45C2033.65 1505.87 2034.04 1502.99 2034.04 1500.81 2034.04 1499.12 2033.62 1497.95 2032.78 1497.29 2031.94 1496.63 2030.61 1496.24 2028.78 1496.13ZM1961.37 1493.5 1985.06 1493.5C1989.32 1493.5 1992.82 1493.83 1995.56 1494.49 1998.3 1495.16 2000.55 1496.18 2002.33 1497.56 2004.1 1498.93 2005.42 1500.68 2006.3 1502.79 2007.18 1504.91 2007.62 1507.36 2007.62 1510.15 2007.62 1515.52 2006.35 1520.18 2003.8 1524.12 2001.26 1528.06 1997.81 1530.96 1993.46 1532.82 1989.11 1534.68 1983.89 1535.61 1977.81 1535.61 1974.15 1535.61 1971.11 1535.54 1968.68 1535.4L1965.24 1551.19C1964.92 1552.65 1964.69 1553.78 1964.57 1554.57 1964.44 1555.36 1964.33 1556.21 1964.24 1557.12 1964.16 1558.03 1964.11 1558.85 1964.11 1559.57 1964.11 1560.68 1964.29 1561.54 1964.65 1562.17 1965.01 1562.8 1965.54 1563.25 1966.26 1563.54 1966.98 1563.83 1968.21 1564.04 1969.97 1564.18L1969.37 1566.82 1947.3 1566.82 1947.89 1564.18C1949.25 1563.97 1950.27 1563.62 1950.95 1563.14 1951.63 1562.65 1952.2 1561.98 1952.67 1561.12 1953.14 1560.26 1953.57 1559.22 1953.96 1557.98 1954.35 1556.75 1954.94 1554.36 1955.73 1550.81L1964.86 1509.45C1965.65 1505.87 1966.04 1503.04 1966.04 1500.97 1966.04 1499.21 1965.63 1497.99 1964.81 1497.31 1963.99 1496.63 1962.64 1496.24 1960.78 1496.13Z" fill-rule="evenodd"/><text fill="#000000" fill-opacity="0" font-family="Arial,Arial_MSFontService,sans-serif" font-size="73.3154" x="1947.3" y="1557.65">π‘ƒπΌπ·</text><path d="M2192.43 1492.64 2195.38 1492.64C2195.17 1496.08 2195.06 1500.84 2195.06 1506.93L2195.06 1552.8C2195.06 1554.87 2195.17 1556.44 2195.41 1557.5 2195.64 1558.55 2196.05 1559.41 2196.64 1560.08 2197.23 1560.74 2198.08 1561.26 2199.19 1561.63 2200.3 1562.01 2201.7 1562.3 2203.38 1562.49 2205.07 1562.69 2207.29 1562.82 2210.04 1562.9L2210.04 1566.82 2170.35 1566.82 2170.35 1562.9C2174.33 1562.72 2177.16 1562.47 2178.86 1562.17 2180.57 1561.87 2181.86 1561.41 2182.76 1560.8 2183.65 1560.19 2184.31 1559.33 2184.72 1558.22 2185.13 1557.11 2185.34 1555.3 2185.34 1552.8L2185.34 1509.24C2185.34 1507.81 2185.09 1506.76 2184.58 1506.1 2184.08 1505.43 2183.35 1505.1 2182.38 1505.1 2181.24 1505.1 2179.61 1505.69 2177.49 1506.88 2175.38 1508.06 2172.77 1509.69 2169.65 1511.76L2167.29 1507.63Z" fill-rule="evenodd"/><text fill="#000000" fill-opacity="0" font-family="Arial,Arial_MSFontService,sans-serif" font-size="74.1748" x="2167.29" y="1557.54">1</text><path d="M2377.76 1751.91C2378.68 1751.91 2379.5 1752.01 2380.2 1752.22 2380.91 1752.43 2381.53 1752.75 2382.07 1753.19 2382.61 1753.62 2383.09 1754.18 2383.51 1754.87 2383.92 1755.56 2384.33 1756.5 2384.72 1757.68 2385.11 1758.86 2385.47 1760.33 2385.82 1762.08 2386.16 1763.83 2386.47 1765.65 2386.74 1767.54L2387.19 1767.54C2390.06 1763.5 2392.24 1760.54 2393.73 1758.67 2395.21 1756.8 2396.46 1755.4 2397.48 1754.49 2398.49 1753.58 2399.48 1752.93 2400.42 1752.56 2401.36 1752.19 2402.61 1752 2404.17 1752 2405.58 1752 2406.73 1752.18 2407.63 1752.54L2405.83 1760.67 2402.69 1760.67C2402.51 1759.41 2401.98 1758.78 2401.11 1758.78 2400.85 1758.78 2400.56 1758.83 2400.26 1758.92 2399.96 1759.01 2399.6 1759.2 2399.16 1759.5 2398.73 1759.8 2398.09 1760.38 2397.25 1761.25 2396.41 1762.12 2395.47 1763.18 2394.42 1764.44 2393.37 1765.7 2392.3 1767.02 2391.19 1768.39L2388.13 1772.21C2388.67 1775.09 2389.18 1777.57 2389.66 1779.67 2390.14 1781.77 2390.57 1783.51 2390.94 1784.9 2391.31 1786.3 2391.64 1787.4 2391.93 1788.2 2392.21 1789.01 2392.52 1789.62 2392.85 1790.02 2393.18 1790.43 2393.52 1790.71 2393.86 1790.88 2394.2 1791.04 2394.6 1791.12 2395.05 1791.12 2395.86 1791.12 2396.65 1790.81 2397.41 1790.18 2398.17 1789.55 2399.27 1788.13 2400.71 1785.91L2403.63 1787.85C2401.53 1790.96 2399.64 1793.15 2397.95 1794.43 2396.26 1795.7 2394.24 1796.34 2391.91 1796.34 2390.62 1796.34 2389.53 1796.1 2388.63 1795.64 2387.73 1795.18 2386.95 1794.43 2386.29 1793.42 2385.63 1792.4 2385.05 1790.81 2384.54 1788.65 2383.61 1784.82 2383.04 1781.89 2382.83 1779.85L2382.38 1779.85C2379.21 1784.31 2376.85 1787.52 2375.31 1789.46 2373.77 1791.41 2372.49 1792.85 2371.49 1793.78 2370.49 1794.7 2369.51 1795.35 2368.57 1795.73 2367.63 1796.1 2366.38 1796.29 2364.82 1796.29 2363.41 1796.29 2362.26 1796.11 2361.36 1795.75L2363.16 1787.62 2366.3 1787.62C2366.48 1788.88 2367 1789.51 2367.87 1789.51 2368.29 1789.51 2368.73 1789.4 2369.2 1789.17 2369.66 1788.95 2370.33 1788.41 2371.2 1787.55 2372.07 1786.7 2373.26 1785.36 2374.79 1783.53 2376.32 1781.71 2378.53 1778.97 2381.44 1775.31 2380.99 1772.95 2380.53 1770.67 2380.05 1768.48 2379.57 1766.3 2379.07 1764.26 2378.56 1762.37 2378.06 1760.49 2377.64 1759.25 2377.31 1758.67 2376.98 1758.08 2376.62 1757.68 2376.25 1757.46 2375.88 1757.23 2375.4 1757.12 2374.84 1757.12 2374.21 1757.12 2373.64 1757.26 2373.13 1757.55 2372.62 1757.83 2372.07 1758.32 2371.47 1759.03 2370.87 1759.73 2370.07 1760.83 2369.09 1762.33L2366.17 1760.4C2368.05 1757.55 2369.86 1755.43 2371.6 1754.02 2373.34 1752.61 2375.39 1751.91 2377.76 1751.91Z" fill-rule="evenodd"/><text fill="#000000" fill-opacity="0" font-family="Arial,Arial_MSFontService,sans-serif" font-size="44.4277" x="2361.36" y="1790.78">π‘¥</text><path d="M2446.75 1730.7 2447.96 1734.16C2440.95 1736.47 2435.76 1740.97 2432.39 1747.66 2429.02 1754.36 2427.34 1762.76 2427.34 1772.89 2427.34 1783.37 2429.02 1792.01 2432.39 1798.81 2435.76 1805.6 2440.91 1810.16 2447.82 1812.46L2446.75 1815.92C2437.97 1813.62 2431.25 1808.65 2426.58 1801.03 2421.9 1793.41 2419.57 1784.18 2419.57 1773.34 2419.57 1762.52 2421.91 1753.29 2426.6 1745.64 2431.29 1737.99 2438 1733.01 2446.75 1730.7Z" fill-rule="evenodd"/><text fill="#000000" fill-opacity="0" font-family="Arial,Arial_MSFontService,sans-serif" font-size="85.2168" x="2419.57" y="1805.27">(</text><path d="M2466.86 1741.58 2473.06 1741.58 2470.59 1752.67 2484.24 1752.67 2483.26 1757.21 2469.6 1757.21 2465.6 1774.64C2464.82 1778.02 2464.33 1780.46 2464.12 1781.94 2463.91 1783.42 2463.8 1784.61 2463.8 1785.51 2463.8 1789.22 2465.35 1791.08 2468.43 1791.08 2469.75 1791.08 2471.15 1790.58 2472.63 1789.58 2474.11 1788.57 2475.87 1786.86 2477.91 1784.43L2480.52 1787.13C2477.91 1790.27 2475.4 1792.59 2472.99 1794.09 2470.58 1795.59 2468.06 1796.34 2465.42 1796.34 2459.16 1796.34 2456.03 1793.18 2456.03 1786.86 2456.03 1784.85 2456.29 1782.74 2456.8 1780.52L2462.1 1757.21 2454.55 1757.21 2455.22 1754.11C2456.99 1754.08 2458.33 1753.94 2459.24 1753.7 2460.16 1753.47 2460.92 1753.14 2461.54 1752.72 2462.15 1752.3 2462.71 1751.7 2463.22 1750.92 2463.73 1750.14 2464.22 1749.15 2464.7 1747.93 2465.18 1746.72 2465.9 1744.6 2466.86 1741.58Z" fill-rule="evenodd"/><text fill="#000000" fill-opacity="0" font-family="Arial,Arial_MSFontService,sans-serif" font-size="54.7598" x="2454.55" y="1789.49">π‘΅</text><path d="M2490.55 1730.7C2499.3 1733.01 2506.01 1737.99 2510.7 1745.64 2515.39 1753.29 2517.73 1762.52 2517.73 1773.34 2517.73 1784.18 2515.4 1793.41 2510.72 1801.03 2506.05 1808.65 2499.33 1813.62 2490.55 1815.92L2489.48 1812.46C2496.39 1810.16 2501.54 1805.6 2504.91 1798.81 2508.28 1792.01 2509.96 1783.37 2509.96 1772.89 2509.96 1762.76 2508.28 1754.36 2504.93 1747.66 2501.57 1740.97 2496.38 1736.47 2489.34 1734.16Z" fill-rule="evenodd"/><text fill="#000000" fill-opacity="0" font-family="Arial,Arial_MSFontService,sans-serif" font-size="85.2168" x="2489.34" y="1805.27">)</text><path d="M1699.51 1007.56C1701.42 1007.56 1702.94 1008.21 1704.04 1009.49 1705.15 1010.78 1705.71 1012.52 1705.71 1014.71 1705.71 1017.07 1705.24 1020.02 1704.31 1023.56L1702.34 1031.33C1701.83 1033.3 1701.46 1034.85 1701.24 1035.95 1701.01 1037.06 1700.85 1038.02 1700.74 1038.83 1700.64 1039.64 1700.59 1040.31 1700.59 1040.85 1700.59 1042.92 1700.93 1044.41 1701.62 1045.32 1702.31 1046.23 1703.43 1046.69 1704.99 1046.69 1706.25 1046.69 1707.6 1046.19 1709.05 1045.18 1710.51 1044.18 1712.05 1042.67 1713.68 1040.65 1715.31 1038.63 1716.62 1036.66 1717.61 1034.76 1718.6 1032.86 1719.41 1030.52 1720.04 1027.73L1724.3 1008.28 1732.08 1008.28 1725.52 1036.76C1724.86 1039.64 1724.53 1041.85 1724.53 1043.41 1724.53 1044.61 1724.72 1045.48 1725.11 1046.02 1725.5 1046.56 1726.12 1046.82 1726.95 1046.82 1727.85 1046.82 1728.81 1046.46 1729.83 1045.72 1730.85 1044.99 1732.29 1043.59 1734.14 1041.52L1736.7 1044.04C1733.98 1046.94 1731.66 1049 1729.74 1050.19 1727.82 1051.39 1725.79 1051.99 1723.63 1051.99 1721.77 1051.99 1720.29 1051.38 1719.18 1050.15 1718.07 1048.92 1717.52 1047.29 1717.52 1045.25 1717.52 1043.64 1717.88 1041.87 1718.6 1039.95L1718.06 1039.77C1715.1 1043.93 1712.29 1047 1709.64 1048.98 1706.99 1050.96 1704.27 1051.95 1701.48 1051.95 1698.7 1051.95 1696.56 1051.14 1695.06 1049.54 1693.56 1047.94 1692.81 1045.72 1692.81 1042.87 1692.81 1040.98 1693.25 1038.3 1694.12 1034.83L1697.04 1023.06C1697.85 1019.8 1698.25 1017.49 1698.25 1016.14 1698.25 1014.95 1698.05 1014.08 1697.67 1013.54 1697.28 1013 1696.66 1012.73 1695.82 1012.73 1694.9 1012.73 1693.91 1013.11 1692.88 1013.87 1691.85 1014.64 1690.43 1016.02 1688.64 1018.03L1686.08 1015.51C1688.62 1012.94 1690.54 1011.17 1691.83 1010.21 1693.11 1009.25 1694.35 1008.57 1695.53 1008.17 1696.71 1007.77 1698.04 1007.56 1699.51 1007.56Z" fill-rule="evenodd"/><text fill="#000000" fill-opacity="0" font-family="Arial,Arial_MSFontService,sans-serif" font-size="44.4277" x="1686.08" y="1046.44">π‘Ά</text><path d="M1775.31 986.36 1776.52 989.819C1769.51 992.125 1764.32 996.624 1760.95 1003.32 1757.59 1010.01 1755.9 1018.42 1755.9 1028.54 1755.9 1039.02 1757.59 1047.66 1760.95 1054.46 1764.32 1061.26 1769.47 1065.81 1776.39 1068.12L1775.31 1071.58C1766.53 1069.27 1759.81 1064.31 1755.14 1056.68 1750.47 1049.06 1748.13 1039.83 1748.13 1028.99 1748.13 1018.18 1750.47 1008.95 1755.16 1001.3 1759.85 993.645 1766.56 988.666 1775.31 986.36Z" fill-rule="evenodd"/><text fill="#000000" fill-opacity="0" font-family="Arial,Arial_MSFontService,sans-serif" font-size="85.2168" x="1748.13" y="1060.92">(</text><path d="M1795.42 997.231 1801.62 997.231 1799.15 1008.33 1812.81 1008.33 1811.82 1012.86 1798.16 1012.86 1794.16 1030.29C1793.38 1033.68 1792.89 1036.11 1792.68 1037.59 1792.47 1039.08 1792.37 1040.27 1792.37 1041.16 1792.37 1044.88 1793.91 1046.73 1796.99 1046.73 1798.31 1046.73 1799.71 1046.23 1801.19 1045.23 1802.68 1044.23 1804.43 1042.51 1806.47 1040.09L1809.08 1042.78C1806.47 1045.93 1803.96 1048.25 1801.55 1049.74 1799.14 1051.24 1796.62 1051.99 1793.98 1051.99 1787.72 1051.99 1784.59 1048.83 1784.59 1042.51 1784.59 1040.51 1784.85 1038.39 1785.36 1036.18L1790.66 1012.86 1783.11 1012.86 1783.79 1009.76C1785.55 1009.73 1786.89 1009.6 1787.81 1009.36 1788.72 1009.12 1789.48 1008.79 1790.1 1008.37 1790.71 1007.95 1791.27 1007.35 1791.78 1006.57 1792.29 1005.8 1792.78 1004.8 1793.26 1003.59 1793.74 1002.37 1794.46 1000.26 1795.42 997.231Z" fill-rule="evenodd"/><text fill="#000000" fill-opacity="0" font-family="Arial,Arial_MSFontService,sans-serif" font-size="54.7598" x="1783.11" y="1045.15">π‘΅</text><path d="M1819.12 986.36C1827.86 988.666 1834.58 993.645 1839.26 1001.3 1843.95 1008.95 1846.29 1018.18 1846.29 1028.99 1846.29 1039.83 1843.96 1049.06 1839.29 1056.68 1834.61 1064.31 1827.89 1069.27 1819.12 1071.58L1818.04 1068.12C1824.96 1065.81 1830.1 1061.26 1833.47 1054.46 1836.84 1047.66 1838.52 1039.02 1838.52 1028.54 1838.52 1018.42 1836.84 1010.01 1833.49 1003.32 1830.14 996.624 1824.94 992.125 1817.9 989.819Z" fill-rule="evenodd"/><text fill="#000000" fill-opacity="0" font-family="Arial,Arial_MSFontService,sans-serif" font-size="85.2168" x="1817.9" y="1060.92">)</text><path d="M1384.5 1032.11 1439.84 1032.11 1439.84 1038.09 1384.5 1038.09Z" fill-rule="evenodd"/><text fill="#000000" fill-opacity="0" font-family="Arial,Arial_MSFontService,sans-serif" font-size="5.97461" x="1384.5" y="1037.34">β’</text><path d="M1472.6 1214.64 1478.98 1214.64 1478.98 1240.51 1503.46 1240.51 1503.46 1246.49 1478.98 1246.49 1478.98 1272.36 1472.6 1272.36 1472.6 1246.49 1448.12 1246.49 1448.12 1240.51 1472.6 1240.51Z" fill-rule="evenodd"/><text fill="#000000" fill-opacity="0" font-family="Arial,Arial_MSFontService,sans-serif" font-size="57.7246" x="1448.12" y="1265.15">+</text><path d="M1535.82 1072.58 1577.33 1072.58 1577.33 1088.26 1573.11 1088.26C1571.88 1083.43 1570.62 1080.3 1569.31 1078.87 1568.01 1077.43 1566.13 1076.71 1563.68 1076.71L1546.65 1076.71 1562.06 1099.98 1562.06 1102.63 1544.76 1126.48 1565.11 1126.48C1567.72 1126.48 1569.61 1125.9 1570.77 1124.73 1571.94 1123.56 1572.9 1120.91 1573.65 1116.78L1578.14 1116.78 1577.15 1133.9 1534.57 1133.9 1534.57 1131.69 1554.69 1104.02 1535.82 1074.78Z" fill-rule="evenodd"/><text fill="#000000" fill-opacity="0" font-family="Arial,Arial_MSFontService,sans-serif" font-size="61.3184" x="1534.57" y="1126.23">Ξ£</text><rect x="2518.5" y="967.5" width="693" height="267" stroke="#000000" stroke-width="6.875" stroke-miterlimit="8" fill="#FFFFFF"/><path d="M0.0108496-3.43748 213.44-2.76385 213.418 4.11112-0.0108496 3.43748ZM208.889-13.0908 236.345 0.745965 208.802 14.4091Z" transform="matrix(1 0 0 -1 2282.5 1102.25)"/><path d="M2586.97 1105.55C2585.29 1113.32 2584.45 1119.86 2584.45 1125.16 2584.45 1129.17 2585.06 1132.11 2586.28 1133.99 2587.49 1135.87 2589.46 1136.81 2592.18 1136.81 2596.19 1136.81 2600 1134.12 2603.6 1128.73 2607.2 1123.34 2610.25 1115.61 2612.75 1105.55ZM2609 1069.35C2604.81 1069.35 2600.93 1072 2597.37 1077.3 2593.8 1082.6 2590.77 1090.19 2588.26 1100.07L2613.99 1100.07C2615.67 1092.52 2616.51 1086.02 2616.51 1080.58 2616.51 1076.82 2615.91 1074.01 2614.69 1072.14 2613.47 1070.28 2611.57 1069.35 2609 1069.35ZM2609.64 1065C2620.02 1065 2625.22 1071.59 2625.22 1084.77 2625.22 1088.49 2624.8 1092.94 2623.95 1098.11 2623.11 1103.29 2621.78 1108.56 2619.95 1113.93 2618.13 1119.3 2615.82 1124.06 2613.02 1128.19 2610.23 1132.33 2607.01 1135.52 2603.36 1137.78 2599.7 1140.03 2595.76 1141.16 2591.54 1141.16 2586.2 1141.16 2582.23 1139.53 2579.62 1136.27 2577 1133.02 2575.69 1128.13 2575.69 1121.61 2575.69 1118.07 2576.09 1113.7 2576.88 1108.51 2577.66 1103.31 2578.96 1098.01 2580.77 1092.58 2582.58 1087.16 2584.91 1082.34 2587.75 1078.13 2590.6 1073.92 2593.88 1070.68 2597.58 1068.41 2601.29 1066.14 2605.31 1065 2609.64 1065Z" fill-rule="evenodd"/><text fill="#000000" fill-opacity="0" font-family="Arial,Arial_MSFontService,sans-serif" font-size="76.1621" x="2575.69" y="1131.64">πƒ</text><path d="M2748.33 1105.55C2746.65 1113.32 2745.81 1119.86 2745.81 1125.16 2745.81 1129.17 2746.41 1132.11 2747.63 1133.99 2748.85 1135.87 2750.82 1136.81 2753.54 1136.81 2757.55 1136.81 2761.35 1134.12 2764.95 1128.73 2768.55 1123.34 2771.6 1115.61 2774.11 1105.55ZM2770.35 1069.35C2766.16 1069.35 2762.29 1072 2758.72 1077.3 2755.16 1082.6 2752.13 1090.19 2749.62 1100.07L2775.35 1100.07C2777.03 1092.52 2777.87 1086.02 2777.87 1080.58 2777.87 1076.82 2777.26 1074.01 2776.04 1072.14 2774.83 1070.28 2772.93 1069.35 2770.35 1069.35ZM2771 1065C2781.38 1065 2786.57 1071.59 2786.57 1084.77 2786.57 1088.49 2786.15 1092.94 2785.31 1098.11 2784.47 1103.29 2783.13 1108.56 2781.31 1113.93 2779.48 1119.3 2777.17 1124.06 2774.38 1128.19 2771.59 1132.33 2768.36 1135.52 2764.71 1137.78 2761.06 1140.03 2757.12 1141.16 2752.9 1141.16 2747.56 1141.16 2743.59 1139.53 2740.97 1136.27 2738.36 1133.02 2737.05 1128.13 2737.05 1121.61 2737.05 1118.07 2737.44 1113.7 2738.23 1108.51 2739.02 1103.31 2740.32 1098.01 2742.13 1092.58 2743.93 1087.16 2746.26 1082.34 2749.11 1078.13 2751.96 1073.92 2755.23 1070.68 2758.94 1068.41 2762.64 1066.14 2766.66 1065 2771 1065Z" fill-rule="evenodd"/><text fill="#000000" fill-opacity="0" font-family="Arial,Arial_MSFontService,sans-serif" font-size="76.1621" x="2737.05" y="1131.64">πƒ</text><path d="M2770.41 1042.72C2772.09 1042.72 2773.5 1043.32 2774.65 1044.52 2775.79 1045.72 2776.37 1047.23 2776.37 1049.06 2776.37 1050.88 2775.79 1052.4 2774.65 1053.6 2773.5 1054.8 2772.09 1055.4 2770.41 1055.4 2768.69 1055.4 2767.25 1054.8 2766.11 1053.6 2764.96 1052.4 2764.39 1050.88 2764.39 1049.06 2764.39 1047.23 2764.96 1045.72 2766.11 1044.52 2767.25 1043.32 2768.69 1042.72 2770.41 1042.72Z" fill-rule="evenodd"/><text fill="#000000" fill-opacity="0" font-family="Arial,Arial_MSFontService,sans-serif" font-size="12.6758" x="2764.39" y="1053.81">α¶</text><path d="M2913.45 1088.04C2914.56 1088.04 2915.53 1088.17 2916.37 1088.42 2917.21 1088.67 2917.96 1089.05 2918.6 1089.57 2919.25 1090.09 2919.82 1090.76 2920.32 1091.59 2920.82 1092.41 2921.31 1093.53 2921.77 1094.94 2922.24 1096.36 2922.68 1098.11 2923.09 1100.21 2923.5 1102.3 2923.87 1104.48 2924.19 1106.73L2924.73 1106.73C2928.16 1101.9 2930.77 1098.36 2932.54 1096.13 2934.31 1093.89 2935.81 1092.22 2937.02 1091.13 2938.24 1090.04 2939.42 1089.27 2940.54 1088.82 2941.67 1088.37 2943.17 1088.15 2945.03 1088.15 2946.71 1088.15 2948.09 1088.36 2949.16 1088.79L2947.02 1098.52 2943.26 1098.52C2943.04 1097.01 2942.41 1096.26 2941.38 1096.26 2941.05 1096.26 2940.71 1096.31 2940.35 1096.42 2940 1096.53 2939.56 1096.76 2939.04 1097.12 2938.52 1097.48 2937.76 1098.18 2936.76 1099.21 2935.75 1100.25 2934.63 1101.52 2933.37 1103.03 2932.12 1104.53 2930.83 1106.11 2929.51 1107.75L2925.85 1112.32C2926.5 1115.76 2927.11 1118.73 2927.68 1121.24 2928.25 1123.74 2928.76 1125.83 2929.21 1127.49 2929.66 1129.16 2930.05 1130.47 2930.39 1131.44 2930.73 1132.41 2931.1 1133.13 2931.49 1133.62 2931.89 1134.1 2932.29 1134.44 2932.7 1134.64 2933.11 1134.83 2933.59 1134.93 2934.12 1134.93 2935.09 1134.93 2936.03 1134.56 2936.94 1133.8 2937.86 1133.05 2939.17 1131.35 2940.89 1128.7L2944.38 1131.01C2941.88 1134.73 2939.61 1137.36 2937.59 1138.88 2935.57 1140.4 2933.16 1141.16 2930.36 1141.16 2928.82 1141.16 2927.52 1140.88 2926.44 1140.33 2925.37 1139.77 2924.44 1138.89 2923.65 1137.67 2922.86 1136.45 2922.16 1134.56 2921.56 1131.98 2920.45 1127.39 2919.77 1123.89 2919.52 1121.45L2918.98 1121.45C2915.18 1126.79 2912.36 1130.62 2910.52 1132.94 2908.67 1135.27 2907.15 1136.99 2905.95 1138.1 2904.75 1139.21 2903.59 1139.99 2902.46 1140.44 2901.33 1140.88 2899.84 1141.11 2897.98 1141.11 2896.29 1141.11 2894.92 1140.89 2893.84 1140.46L2895.99 1130.74 2899.75 1130.74C2899.96 1132.25 2900.59 1133 2901.63 1133 2902.13 1133 2902.66 1132.86 2903.21 1132.6 2903.77 1132.33 2904.57 1131.68 2905.6 1130.66 2906.64 1129.64 2908.07 1128.04 2909.9 1125.85 2911.73 1123.67 2914.38 1120.39 2917.85 1116.03 2917.31 1113.2 2916.76 1110.48 2916.19 1107.86 2915.61 1105.25 2915.02 1102.81 2914.41 1100.56 2913.8 1098.3 2913.3 1096.82 2912.91 1096.13 2912.51 1095.43 2912.09 1094.94 2911.65 1094.68 2911.2 1094.41 2910.64 1094.27 2909.95 1094.27 2909.2 1094.27 2908.52 1094.44 2907.91 1094.78 2907.3 1095.12 2906.64 1095.71 2905.93 1096.56 2905.21 1097.4 2904.26 1098.71 2903.08 1100.5L2899.59 1098.19C2901.84 1094.79 2904.01 1092.25 2906.09 1090.57 2908.16 1088.88 2910.62 1088.04 2913.45 1088.04Z" fill-rule="evenodd"/><text fill="#000000" fill-opacity="0" font-family="Arial,Arial_MSFontService,sans-serif" font-size="53.1201" x="2893.84" y="1134.52">π‘¥</text><path d="M3095.52 1088.04C3096.63 1088.04 3097.6 1088.17 3098.45 1088.42 3099.29 1088.67 3100.03 1089.05 3100.68 1089.57 3101.32 1090.09 3101.89 1090.76 3102.39 1091.59 3102.9 1092.41 3103.38 1093.53 3103.84 1094.94 3104.31 1096.36 3104.75 1098.11 3105.16 1100.21 3105.57 1102.3 3105.94 1104.48 3106.26 1106.73L3106.8 1106.73C3110.24 1101.9 3112.84 1098.36 3114.61 1096.13 3116.39 1093.89 3117.88 1092.22 3119.1 1091.13 3120.32 1090.04 3121.49 1089.27 3122.62 1088.82 3123.74 1088.37 3125.24 1088.15 3127.1 1088.15 3128.78 1088.15 3130.16 1088.36 3131.24 1088.79L3129.09 1098.52 3125.33 1098.52C3125.11 1097.01 3124.49 1096.26 3123.45 1096.26 3123.13 1096.26 3122.79 1096.31 3122.43 1096.42 3122.07 1096.53 3121.63 1096.76 3121.11 1097.12 3120.59 1097.48 3119.83 1098.18 3118.83 1099.21 3117.83 1100.25 3116.7 1101.52 3115.45 1103.03 3114.19 1104.53 3112.9 1106.11 3111.58 1107.75L3107.93 1112.32C3108.57 1115.76 3109.18 1118.73 3109.75 1121.24 3110.33 1123.74 3110.84 1125.83 3111.28 1127.49 3111.73 1129.16 3112.12 1130.47 3112.46 1131.44 3112.8 1132.41 3113.17 1133.13 3113.57 1133.62 3113.96 1134.1 3114.36 1134.44 3114.77 1134.64 3115.19 1134.83 3115.66 1134.93 3116.2 1134.93 3117.16 1134.93 3118.1 1134.56 3119.02 1133.8 3119.93 1133.05 3121.25 1131.35 3122.97 1128.7L3126.46 1131.01C3123.95 1134.73 3121.69 1137.36 3119.66 1138.88 3117.64 1140.4 3115.23 1141.16 3112.44 1141.16 3110.9 1141.16 3109.59 1140.88 3108.52 1140.33 3107.44 1139.77 3106.51 1138.89 3105.72 1137.67 3104.94 1136.45 3104.24 1134.56 3103.63 1131.98 3102.52 1127.39 3101.84 1123.89 3101.59 1121.45L3101.05 1121.45C3097.26 1126.79 3094.44 1130.62 3092.59 1132.94 3090.75 1135.27 3089.23 1136.99 3088.03 1138.1 3086.83 1139.21 3085.66 1139.99 3084.53 1140.44 3083.41 1140.88 3081.91 1141.11 3080.05 1141.11 3078.37 1141.11 3076.99 1140.89 3075.91 1140.46L3078.06 1130.74 3081.82 1130.74C3082.04 1132.25 3082.66 1133 3083.7 1133 3084.2 1133 3084.73 1132.86 3085.29 1132.6 3085.84 1132.33 3086.64 1131.68 3087.68 1130.66 3088.72 1129.64 3090.15 1128.04 3091.97 1125.85 3093.8 1123.67 3096.45 1120.39 3099.92 1116.03 3099.39 1113.2 3098.83 1110.48 3098.26 1107.86 3097.69 1105.25 3097.09 1102.81 3096.49 1100.56 3095.88 1098.3 3095.38 1096.82 3094.98 1096.13 3094.59 1095.43 3094.17 1094.94 3093.72 1094.68 3093.27 1094.41 3092.71 1094.27 3092.03 1094.27 3091.28 1094.27 3090.6 1094.44 3089.99 1094.78 3089.38 1095.12 3088.72 1095.71 3088 1096.56 3087.28 1097.4 3086.33 1098.71 3085.15 1100.5L3081.66 1098.19C3083.92 1094.79 3086.08 1092.25 3088.16 1090.57 3090.24 1088.88 3092.69 1088.04 3095.52 1088.04Z" fill-rule="evenodd"/><text fill="#000000" fill-opacity="0" font-family="Arial,Arial_MSFontService,sans-serif" font-size="53.1201" x="3075.91" y="1134.52">π‘¥</text><path d="M3109.96 1065.59C3111.64 1065.59 3113.06 1066.19 3114.2 1067.39 3115.35 1068.59 3115.92 1070.1 3115.92 1071.93 3115.92 1073.75 3115.35 1075.27 3114.2 1076.47 3113.06 1077.67 3111.64 1078.27 3109.96 1078.27 3108.24 1078.27 3106.81 1077.67 3105.66 1076.47 3104.52 1075.27 3103.95 1073.75 3103.95 1071.93 3103.95 1070.1 3104.52 1068.59 3105.66 1067.39 3106.81 1066.19 3108.24 1065.59 3109.96 1065.59Z" fill-rule="evenodd"/><text fill="#000000" fill-opacity="0" font-family="Arial,Arial_MSFontService,sans-serif" font-size="12.6758" x="3103.95" y="1076.68">α¶</text><path d="M1877.99 1538.7 1554.06 1538.7 1554.06 1219.42 1560.94 1219.42 1560.94 1535.27 1557.5 1531.83 1877.99 1531.83ZM1543.75 1224 1557.5 1196.5 1571.25 1224Z"/><rect x="1876.5" y="1717.5" width="401" height="272" stroke="#000000" stroke-width="6.875" stroke-miterlimit="8" fill="#F6C6AD"/><path d="M1982.79 1816.21C1980.57 1816.21 1978.24 1816.26 1975.8 1816.37L1968.5 1848.92 1974.09 1848.92C1978.42 1848.92 1981.92 1848.47 1984.59 1847.57 1987.25 1846.68 1989.44 1845.29 1991.14 1843.41 1992.84 1841.53 1994.16 1839.3 1995.09 1836.73 1996.02 1834.15 1996.48 1831.32 1996.48 1828.24 1996.48 1824.09 1995.43 1821.04 1993.31 1819.11 1991.2 1817.17 1987.69 1816.21 1982.79 1816.21ZM2090.8 1816.15C2089.22 1816.15 2087.52 1816.21 2085.7 1816.32L2071.79 1879.86C2072.82 1879.96 2074.81 1880.02 2077.75 1880.02 2083.55 1880.02 2088.47 1879 2092.52 1876.98 2096.56 1874.96 2100.06 1871.79 2102.99 1867.47 2105.93 1863.16 2108.09 1858.61 2109.49 1853.83 2110.89 1849.05 2111.59 1844.01 2111.59 1838.71 2111.59 1831.23 2109.84 1825.6 2106.35 1821.82 2102.86 1818.04 2097.67 1816.15 2090.8 1816.15ZM2070.28 1811.48 2090.64 1811.48C2096.05 1811.48 2100.43 1811.89 2103.8 1812.72 2107.16 1813.54 2110.31 1815.03 2113.22 1817.17 2116.14 1819.32 2118.34 1822.18 2119.8 1825.74 2121.27 1829.3 2122.01 1833.52 2122.01 1838.39 2122.01 1843.22 2121.45 1847.84 2120.34 1852.25 2119.23 1856.65 2117.64 1860.71 2115.56 1864.41 2113.48 1868.12 2111 1871.34 2108.09 1874.08 2105.19 1876.82 2102.38 1878.92 2099.66 1880.39 2096.94 1881.86 2093.9 1882.96 2090.53 1883.7 2087.17 1884.43 2083.24 1884.8 2078.77 1884.8L2056.21 1884.8 2056.8 1882.16C2058.16 1881.95 2059.18 1881.6 2059.86 1881.12 2060.54 1880.63 2061.12 1879.96 2061.58 1879.1 2062.05 1878.24 2062.48 1877.2 2062.87 1875.96 2063.26 1874.73 2063.85 1872.34 2064.64 1868.79L2073.77 1827.43C2074.56 1823.85 2074.96 1820.97 2074.96 1818.79 2074.96 1817.1 2074.53 1815.93 2073.69 1815.27 2072.85 1814.61 2071.52 1814.22 2069.69 1814.11ZM2028.28 1811.48 2049.77 1811.48 2049.18 1814.11C2047.82 1814.4 2046.84 1814.72 2046.25 1815.08 2045.66 1815.44 2045.13 1815.97 2044.66 1816.69 2044.2 1817.41 2043.72 1818.53 2043.21 1820.05 2042.71 1821.57 2042.09 1824.05 2041.33 1827.49L2032.15 1869.17C2031.68 1871.28 2031.38 1872.95 2031.24 1874.19 2031.09 1875.42 2031.02 1876.54 2031.02 1877.55 2031.02 1879.16 2031.42 1880.29 2032.23 1880.96 2033.04 1881.62 2034.39 1882.02 2036.29 1882.16L2035.69 1884.8 2014.21 1884.8 2014.8 1882.16C2016.16 1881.95 2017.18 1881.6 2017.86 1881.12 2018.54 1880.63 2019.12 1879.96 2019.58 1879.1 2020.05 1878.24 2020.48 1877.2 2020.87 1875.96 2021.26 1874.73 2021.85 1872.34 2022.64 1868.79L2031.77 1827.43C2032.56 1823.85 2032.96 1820.97 2032.96 1818.79 2032.96 1817.1 2032.53 1815.93 2031.69 1815.27 2030.85 1814.61 2029.52 1814.22 2027.69 1814.11ZM1960.28 1811.48 1983.97 1811.48C1988.23 1811.48 1991.73 1811.81 1994.47 1812.47 1997.21 1813.14 1999.46 1814.16 2001.24 1815.54 2003.01 1816.91 2004.33 1818.66 2005.21 1820.77 2006.09 1822.89 2006.53 1825.34 2006.53 1828.13 2006.53 1833.5 2005.26 1838.16 2002.71 1842.1 2000.17 1846.04 1996.73 1848.94 1992.37 1850.8 1988.02 1852.66 1982.81 1853.59 1976.72 1853.59 1973.07 1853.59 1970.02 1853.52 1967.59 1853.38L1964.15 1869.17C1963.83 1870.63 1963.6 1871.76 1963.48 1872.55 1963.35 1873.34 1963.25 1874.19 1963.16 1875.1 1963.07 1876.01 1963.02 1876.83 1963.02 1877.55 1963.02 1878.66 1963.2 1879.52 1963.56 1880.15 1963.92 1880.78 1964.45 1881.23 1965.17 1881.52 1965.89 1881.81 1967.12 1882.02 1968.88 1882.16L1968.29 1884.8 1946.21 1884.8 1946.8 1882.16C1948.16 1881.95 1949.18 1881.6 1949.86 1881.12 1950.54 1880.63 1951.12 1879.96 1951.58 1879.1 1952.05 1878.24 1952.48 1877.2 1952.87 1875.96 1953.26 1874.73 1953.85 1872.34 1954.64 1868.79L1963.77 1827.43C1964.56 1823.85 1964.96 1821.02 1964.96 1818.95 1964.96 1817.19 1964.54 1815.97 1963.72 1815.29 1962.9 1814.61 1961.55 1814.22 1959.69 1814.11Z" fill-rule="evenodd"/><text fill="#000000" fill-opacity="0" font-family="Arial,Arial_MSFontService,sans-serif" font-size="73.3154" x="1946.21" y="1875.63">π‘ƒπΌπ·</text><path d="M2187.52 1810.62C2194.18 1810.62 2199.22 1812.08 2202.62 1815 2206.02 1817.92 2207.72 1822.15 2207.72 1827.7 2207.72 1829.6 2207.53 1831.35 2207.16 1832.94 2206.78 1834.53 2206.19 1836.11 2205.38 1837.67 2204.58 1839.22 2203.49 1840.9 2202.13 1842.69 2200.77 1844.48 2199.27 1846.29 2197.62 1848.14 2195.97 1849.98 2193.13 1853.05 2189.08 1857.35 2182.28 1864.55 2177.28 1870.83 2174.1 1876.2L2194.35 1876.2C2196.1 1876.2 2197.51 1876.1 2198.59 1875.88 2199.66 1875.67 2200.52 1875.31 2201.17 1874.81 2201.81 1874.31 2202.32 1873.65 2202.7 1872.85 2203.07 1872.04 2203.55 1870.8 2204.12 1869.11L2208.69 1869.11 2207.77 1884.8 2163.57 1884.8 2163.57 1882.22C2165.11 1878.46 2167.19 1874.61 2169.8 1870.67 2172.41 1866.73 2176.12 1862.09 2180.92 1856.76 2185.07 1852.18 2188.06 1848.7 2189.89 1846.34 2191.89 1843.76 2193.39 1841.53 2194.37 1839.65 2195.36 1837.77 2196.06 1836 2196.49 1834.34 2196.92 1832.67 2197.14 1831 2197.14 1829.31 2197.14 1826.63 2196.71 1824.26 2195.85 1822.2 2194.99 1820.14 2193.67 1818.52 2191.9 1817.34 2190.13 1816.15 2187.9 1815.56 2185.21 1815.56 2178.52 1815.56 2174.01 1819.29 2171.68 1826.74L2165.18 1826.74 2165.18 1816.42C2169.51 1814.38 2173.57 1812.9 2177.35 1811.99 2181.12 1811.08 2184.52 1810.62 2187.52 1810.62Z" fill-rule="evenodd"/><text fill="#000000" fill-opacity="0" font-family="Arial,Arial_MSFontService,sans-serif" font-size="74.1748" x="2163.57" y="1875.52">2</text><path d="M1876.66 1856.44 1376.56 1856.44 1376.56 1098.06 1439.58 1098.06 1439.58 1104.94 1380 1104.94 1383.44 1101.5 1383.44 1853 1380 1849.56 1876.66 1849.56ZM1435 1087.75 1462.5 1101.5 1435 1115.25Z"/><path d="M2361.34 1464.56C2359.93 1471.06 2359.23 1476.52 2359.23 1480.95 2359.23 1484.31 2359.74 1486.77 2360.76 1488.34 2361.78 1489.92 2363.42 1490.7 2365.7 1490.7 2369.05 1490.7 2372.23 1488.45 2375.24 1483.94 2378.25 1479.43 2380.81 1472.97 2382.9 1464.56ZM2379.76 1434.28C2376.26 1434.28 2373.01 1436.5 2370.03 1440.93 2367.05 1445.36 2364.52 1451.71 2362.42 1459.98L2383.94 1459.98C2385.34 1453.66 2386.05 1448.22 2386.05 1443.67 2386.05 1440.52 2385.54 1438.17 2384.52 1436.62 2383.5 1435.06 2381.92 1434.28 2379.76 1434.28ZM2380.3 1430.64C2388.98 1430.64 2393.33 1436.15 2393.33 1447.17 2393.33 1450.29 2392.97 1454.01 2392.27 1458.34 2391.57 1462.66 2390.45 1467.07 2388.92 1471.56 2387.4 1476.06 2385.46 1480.03 2383.13 1483.49 2380.79 1486.95 2378.1 1489.62 2375.04 1491.51 2371.99 1493.4 2368.69 1494.34 2365.16 1494.34 2360.7 1494.34 2357.37 1492.98 2355.19 1490.25 2353 1487.53 2351.91 1483.44 2351.91 1477.99 2351.91 1475.02 2352.24 1471.37 2352.9 1467.03 2353.55 1462.69 2354.64 1458.25 2356.15 1453.71 2357.67 1449.17 2359.61 1445.14 2361.99 1441.62 2364.37 1438.11 2367.11 1435.4 2370.21 1433.49 2373.31 1431.59 2376.67 1430.64 2380.3 1430.64Z" fill-rule="evenodd"/><text fill="#000000" fill-opacity="0" font-family="Arial,Arial_MSFontService,sans-serif" font-size="63.6992" x="2351.91" y="1486.38">πƒ</text><path d="M2436.25 1428.71 2437.46 1432.17C2430.45 1434.47 2425.27 1438.97 2421.9 1445.67 2418.53 1452.36 2416.84 1460.77 2416.84 1470.89 2416.84 1481.37 2418.53 1490.01 2421.9 1496.81 2425.27 1503.61 2430.41 1508.16 2437.33 1510.47L2436.25 1513.93C2427.47 1511.62 2420.75 1506.66 2416.08 1499.03 2411.41 1491.41 2409.07 1482.18 2409.07 1471.34 2409.07 1460.53 2411.41 1451.3 2416.1 1443.65 2420.79 1435.99 2427.5 1431.02 2436.25 1428.71Z" fill-rule="evenodd"/><text fill="#000000" fill-opacity="0" font-family="Arial,Arial_MSFontService,sans-serif" font-size="85.2168" x="2409.07" y="1503.27">(</text><path d="M2456.36 1439.58 2462.56 1439.58 2460.09 1450.68 2473.75 1450.68 2472.76 1455.21 2459.1 1455.21 2455.1 1472.64C2454.33 1476.03 2453.83 1478.46 2453.62 1479.94 2453.41 1481.43 2453.31 1482.62 2453.31 1483.51 2453.31 1487.23 2454.85 1489.08 2457.93 1489.08 2459.25 1489.08 2460.65 1488.58 2462.13 1487.58 2463.62 1486.58 2465.38 1484.86 2467.41 1482.44L2470.02 1485.13C2467.41 1488.28 2464.91 1490.6 2462.49 1492.09 2460.08 1493.59 2457.56 1494.34 2454.92 1494.34 2448.67 1494.34 2445.54 1491.18 2445.54 1484.86 2445.54 1482.86 2445.79 1480.74 2446.3 1478.53L2451.6 1455.21 2444.05 1455.21 2444.73 1452.11C2446.49 1452.08 2447.83 1451.95 2448.75 1451.71 2449.66 1451.47 2450.43 1451.14 2451.04 1450.72 2451.65 1450.3 2452.21 1449.7 2452.72 1448.92 2453.23 1448.15 2453.73 1447.15 2454.21 1445.94 2454.69 1444.72 2455.4 1442.61 2456.36 1439.58Z" fill-rule="evenodd"/><text fill="#000000" fill-opacity="0" font-family="Arial,Arial_MSFontService,sans-serif" font-size="54.7598" x="2444.05" y="1487.5">π‘΅</text><path d="M2480.06 1428.71C2488.8 1431.02 2495.52 1435.99 2500.2 1443.65 2504.89 1451.3 2507.24 1460.53 2507.24 1471.34 2507.24 1482.18 2504.9 1491.41 2500.23 1499.03 2495.56 1506.66 2488.83 1511.62 2480.06 1513.93L2478.98 1510.47C2485.9 1508.16 2491.04 1503.61 2494.41 1496.81 2497.78 1490.01 2499.46 1481.37 2499.46 1470.89 2499.46 1460.77 2497.79 1452.36 2494.43 1445.67 2491.08 1438.97 2485.88 1434.47 2478.84 1432.17Z" fill-rule="evenodd"/><text fill="#000000" fill-opacity="0" font-family="Arial,Arial_MSFontService,sans-serif" font-size="85.2168" x="2478.84" y="1503.27">)</text><path d="M2346.55 1013.23C2347.78 1013.23 2348.83 1013.39 2349.7 1013.72 2350.3 1013.96 2350.9 1014.36 2351.49 1014.91 2352.09 1015.46 2352.62 1016.24 2353.09 1017.22 2353.55 1018.21 2353.96 1019.32 2354.3 1020.55 2354.65 1021.78 2355.03 1023.54 2355.45 1025.85 2356.17 1029.71 2356.86 1033.78 2357.54 1038.05 2358.21 1042.31 2358.79 1046.27 2359.27 1049.93 2362.17 1045.73 2364.63 1041.63 2366.66 1037.62 2368.68 1033.61 2370.13 1030.12 2371.01 1027.15 2371.9 1024.19 2372.34 1021.78 2372.34 1019.92 2372.34 1018.51 2372.04 1017.55 2371.44 1017.04 2370.84 1016.54 2369.82 1016.24 2368.38 1016.15L2368.83 1013.94 2380.65 1013.94 2381.86 1016.19C2379.59 1022.42 2376.5 1029.08 2372.61 1036.18 2368.77 1043.13 2364.39 1050.05 2359.45 1056.93 2354.71 1063.49 2350.78 1068.24 2347.63 1071.18 2345.44 1073.18 2343.33 1074.62 2341.3 1075.49 2339.68 1076.15 2337.96 1076.48 2336.13 1076.48 2335.5 1076.48 2334.78 1076.42 2333.95 1076.32 2333.13 1076.21 2332.49 1076.07 2332.04 1075.89L2333.97 1067.18 2337.52 1067.18C2337.52 1069.09 2338.18 1070.05 2339.5 1070.05 2341.24 1070.05 2343.26 1068.97 2345.56 1066.8 2347.87 1064.62 2350.58 1061.35 2353.7 1056.98 2352.83 1051.74 2351.64 1045.42 2350.15 1038.02 2348.56 1030.12 2347.51 1025.22 2347 1023.33 2346.37 1021.06 2345.71 1019.6 2345.03 1018.98 2344.61 1018.59 2344.08 1018.39 2343.45 1018.39 2342.49 1018.39 2341.6 1018.78 2340.76 1019.56 2339.92 1020.34 2338.89 1021.69 2337.66 1023.6L2334.74 1021.67C2336.8 1018.59 2338.74 1016.41 2340.53 1015.14 2342.33 1013.86 2344.34 1013.23 2346.55 1013.23Z" fill-rule="evenodd"/><text fill="#000000" fill-opacity="0" font-family="Arial,Arial_MSFontService,sans-serif" font-size="63.25" x="2332.04" y="1068.57">π‘¦</text><path d="M2420.11 991.978 2421.33 995.437C2414.32 997.743 2409.13 1002.24 2405.76 1008.94 2402.39 1015.63 2400.71 1024.04 2400.71 1034.16 2400.71 1044.64 2402.39 1053.28 2405.76 1060.08 2409.13 1066.88 2414.27 1071.43 2421.19 1073.74L2420.11 1077.19C2411.34 1074.89 2404.61 1069.92 2399.94 1062.3 2395.27 1054.68 2392.94 1045.45 2392.94 1034.61 2392.94 1023.8 2395.28 1014.57 2399.97 1006.91 2404.65 999.263 2411.37 994.284 2420.11 991.978Z" fill-rule="evenodd"/><text fill="#000000" fill-opacity="0" font-family="Arial,Arial_MSFontService,sans-serif" font-size="85.2168" x="2392.94" y="1066.54">(</text><path d="M2440.23 1002.85 2446.43 1002.85 2443.95 1013.94 2457.61 1013.94 2456.62 1018.48 2442.97 1018.48 2438.97 1035.91C2438.19 1039.3 2437.7 1041.73 2437.49 1043.21 2437.28 1044.69 2437.17 1045.88 2437.17 1046.78 2437.17 1050.5 2438.71 1052.35 2441.8 1052.35 2443.12 1052.35 2444.52 1051.85 2446 1050.85 2447.48 1049.84 2449.24 1048.13 2451.28 1045.7L2453.88 1048.4C2451.28 1051.54 2448.77 1053.87 2446.36 1055.36 2443.95 1056.86 2441.42 1057.61 2438.79 1057.61 2432.53 1057.61 2429.4 1054.45 2429.4 1048.13 2429.4 1046.12 2429.65 1044.01 2430.16 1041.8L2435.46 1018.48 2427.92 1018.48 2428.59 1015.38C2430.36 1015.35 2431.7 1015.22 2432.61 1014.98 2433.53 1014.74 2434.29 1014.41 2434.9 1013.99 2435.52 1013.57 2436.08 1012.97 2436.59 1012.19 2437.1 1011.41 2437.59 1010.42 2438.07 1009.21 2438.55 1007.99 2439.27 1005.87 2440.23 1002.85Z" fill-rule="evenodd"/><text fill="#000000" fill-opacity="0" font-family="Arial,Arial_MSFontService,sans-serif" font-size="54.7598" x="2427.92" y="1050.76">π‘΅</text><path d="M2463.92 991.978C2472.67 994.284 2479.38 999.263 2484.07 1006.91 2488.76 1014.57 2491.1 1023.8 2491.1 1034.61 2491.1 1045.45 2488.76 1054.68 2484.09 1062.3 2479.42 1069.92 2472.7 1074.89 2463.92 1077.19L2462.84 1073.74C2469.76 1071.43 2474.9 1066.88 2478.27 1060.08 2481.64 1053.28 2483.33 1044.64 2483.33 1034.16 2483.33 1024.04 2481.65 1015.63 2478.3 1008.94 2474.94 1002.24 2469.75 997.743 2462.71 995.437Z" fill-rule="evenodd"/><text fill="#000000" fill-opacity="0" font-family="Arial,Arial_MSFontService,sans-serif" font-size="85.2168" x="2462.71" y="1066.54">)</text><path d="M2597.25 1184.5 2597.25 1539.2 2301.42 1539.2 2301.42 1532.32 2593.81 1532.32 2590.37 1535.76 2590.37 1184.5ZM2306 1549.51 2278.5 1535.76 2306 1522.01Z"/><path d="M2924.59 1184.5 2924.59 1857.18 2300.42 1857.18 2300.42 1850.3 2921.15 1850.3 2917.71 1853.74 2917.71 1184.5ZM2305 1867.49 2277.5 1853.74 2305 1839.99Z"/><path d="M2561.5 1184.5 2625.93 1184.5" stroke="#000000" stroke-width="6.875" stroke-miterlimit="8" fill="none" fill-rule="evenodd"/><path d="M2888.5 1184.5 2952.93 1184.5" stroke="#000000" stroke-width="6.875" stroke-miterlimit="8" fill="none" fill-rule="evenodd"/></g></svg>